<svg width="13" height="14" fill="none" xmlns="http://www.w3.org/2000/svg"><path d="M12.485 8.768l-1.324.272 1.533.816c.13.08.227.2.28.34a.292.292 0 0 1-.07.34.694.694 0 0 1-.349.271.315.315 0 0 1-.349-.068l-1.533-.815.418 1.223c.07.204.07.34-.14.476a.762.762 0 0 1-.488.204.378.378 0 0 1-.24-.106.36.36 0 0 1-.108-.234l-.837-2.311L7.117 8.02v2.38l1.673 1.767a.512.512 0 0 1 .14.34c0 .136 0 .203-.07.271a.959.959 0 0 1-.279.204.642.642 0 0 1-.349.068c-.139 0-.209-.068-.348-.204l-.906-1.02v1.632a.473.473 0 0 1-.084.264.505.505 0 0 1-.753.076.375.375 0 0 1-.14-.34v-1.631l-.906 1.02a1.535 1.535 0 0 1-.348.203c-.14.068-.21 0-.349-.068-.07-.068-.21-.136-.279-.204a.4.4 0 0 1-.07-.271c0-.136.07-.204.14-.34l1.673-1.768V8.02L3.701 9.176l-.837 2.243c-.07.204-.209.34-.348.34a.53.53 0 0 1-.488-.204.45.45 0 0 1-.14-.476l.419-1.223-1.534.815a.775.775 0 0 1-.349.068.616.616 0 0 1-.348-.272v-.34a.686.686 0 0 1 .278-.34l1.534-.815L.564 8.7a.469.469 0 0 1-.349-.272c-.14-.068-.14-.204-.14-.34A.367.367 0 0 1 .13 7.89a.38.38 0 0 1 .155-.14c.14-.068.279-.136.348-.068l2.44.475 2.162-1.155-2.162-1.156-2.44.34h-.14a.54.54 0 0 1-.348-.136.512.512 0 0 1-.14-.34.724.724 0 0 1 .07-.34.391.391 0 0 1 .349-.204l1.325-.271-1.464-.816a.682.682 0 0 1-.28-.34.5.5 0 0 1 .07-.34.693.693 0 0 1 .35-.271.314.314 0 0 1 .348.068l1.534.815-.419-1.223c-.07-.204-.07-.34.14-.408a.94.94 0 0 1 .488-.204c.209 0 .279.136.348.34l.837 2.31 2.161 1.156v-2.38L4.19 1.835c-.07-.136-.14-.204-.14-.34 0-.136 0-.204.07-.272a.96.96 0 0 1 .279-.203c.14-.068.21-.136.349-.068.13.042.249.111.348.203l.907 1.02v-1.7a.512.512 0 0 1 .139-.34C6.249.074 6.367.028 6.49 0a.54.54 0 0 1 .348.136.375.375 0 0 1 .14.34v1.631l.906-1.02a1.57 1.57 0 0 1 .348-.203.652.652 0 0 1 .35.068c.069.068.208.136.278.203a.4.4 0 0 1 .07.272c0 .136-.07.204-.14.34L7.117 3.534v2.38l2.161-1.156.837-2.243c.07-.204.209-.34.348-.34a.532.532 0 0 1 .489.204c.139.204.209.34.139.476l-.418 1.223 1.533-.815a.775.775 0 0 1 .349-.068c.144.05.266.146.348.271v.34a.681.681 0 0 1-.278.34l-1.534.816 1.325.272a.39.39 0 0 1 .348.204c.065.105.112.22.14.34 0 .135-.07.203-.14.34a.54.54 0 0 1-.348.135h-.14l-2.44-.476-2.231 1.224 2.161 1.155 2.44-.475c.14 0 .349 0 .349.068a.38.38 0 0 1 .155.14.38.38 0 0 1 .054.2.5.5 0 0 1-.07.34c.14.203 0 .34-.209.34z" fill="#132968"/></svg>