<svg width="18" height="14" fill="none" xmlns="http://www.w3.org/2000/svg"><path d="M16.396.004H1.515A1.501 1.501 0 0 0 0 1.519v.534h17.822V1.52A1.336 1.336 0 0 0 16.396.004zM.089 12.39a1.502 1.502 0 0 0 1.515 1.515h14.881A1.503 1.503 0 0 0 18 12.39V2.944H.178L.09 12.39zM10.96 5.172a.236.236 0 0 1 .268-.267h4.455a.236.236 0 0 1 .267.267v.535a.235.235 0 0 1-.267.267h-4.455a.236.236 0 0 1-.268-.267v-.535zm0 2.05a.236.236 0 0 1 .268-.268h4.455a.236.236 0 0 1 .267.268v.534a.235.235 0 0 1-.267.268h-4.455a.236.236 0 0 1-.268-.268v-.534zm0 1.96a.236.236 0 0 1 .268-.267h4.455a.236.236 0 0 1 .267.267v.535a.235.235 0 0 1-.159.257.236.236 0 0 1-.108.01h-4.455a.237.237 0 0 1-.268-.267v-.535zM5.525 4.994a1.96 1.96 0 1 1-1.96 1.96 1.978 1.978 0 0 1 1.96-1.96zm-3.386 6.238a1.926 1.926 0 0 1 1.87-1.337h.268c.39.182.817.274 1.248.267.43.007.857-.085 1.247-.267h.268a1.926 1.926 0 0 1 1.87 1.337.523.523 0 0 1-.445.623H2.673a.502.502 0 0 1-.534-.623z" fill="#132968"/></svg>