<svg width="18" height="18" fill="none" xmlns="http://www.w3.org/2000/svg"><path d="M17.999 16.289a1.709 1.709 0 0 1-1.71 1.71H1.709A1.71 1.71 0 0 1 0 16.289v-9.27a1.914 1.914 0 0 1 .63-1.35c.9-.72 1.62-1.26 5.76-4.23C7.02.99 8.19 0 9 0c.81 0 1.98.99 2.61 1.44 4.139 3.06 4.859 3.6 5.759 4.23a1.62 1.62 0 0 1 .63 1.35v9.269zm-2.34-6.93c-.09-.09-.27-.18-.36-.09-.81.63-1.98 1.44-3.69 2.7-.63.45-1.8 1.44-2.61 1.44-.81 0-1.98-.99-2.61-1.44-1.8-1.26-2.88-2.16-3.69-2.7a.222.222 0 0 0-.36.09l-.36.45a.222.222 0 0 0 .09.36c.81.63 1.98 1.44 3.69 2.7.72.54 1.98 1.71 3.24 1.71 1.26 0 2.52-1.17 3.24-1.71 1.71-1.26 2.88-2.07 3.69-2.7.09-.09.18-.27.09-.36l-.36-.45z" fill="#132968"/></svg>