<svg width="16" height="16" fill="none" xmlns="http://www.w3.org/2000/svg"><mask id="path-1-inside-1" fill="#fff"><path fill-rule="evenodd" clip-rule="evenodd" d="M11.376.094l4.076 4.236a.308.308 0 0 1 .086.213V14.77c0 .678-.553 1.23-1.233 1.23H5.079c-.68 0-1.233-.552-1.233-1.23V12H1.383a.923.923 0 0 1-.922-.922V6.46c0-.509.414-.923.922-.923h2.463V1.233C3.846.553 4.399 0 5.079 0h6.075c.084 0 .164.034.222.094zm3.2 4.214L11.23.83v3.477h3.346zm-13.5 6.77c0 .169.138.307.307.307h8.31a.307.307 0 0 0 .306-.307V6.46a.307.307 0 0 0-.307-.307H1.383a.307.307 0 0 0-.307.307v4.617zm13.229 4.307c.34 0 .617-.276.617-.615V4.923h-4a.308.308 0 0 1-.307-.308v-4H5.079a.618.618 0 0 0-.618.618v4.305h5.231c.509 0 .923.414.923.923v4.617a.923.923 0 0 1-.923.922H4.461v2.77c0 .339.277.615.618.615h9.226zM3.76 7.55c.151.04.278.126.38.258a.82.82 0 0 1 .153.515.866.866 0 0 1-.088.41.725.725 0 0 1-.224.26.773.773 0 0 1-.277.125 3.045 3.045 0 0 1-.554.038h-.348v.997H2.27V7.511h.856c.325 0 .536.013.635.04zm-.244 1.116a.35.35 0 0 0 .227-.336.341.341 0 0 0-.084-.238.369.369 0 0 0-.215-.117 2.563 2.563 0 0 0-.384-.018h-.258v.75h.292c.21 0 .351-.014.422-.041zm3.343-.434a1.155 1.155 0 0 0-.253-.428.884.884 0 0 0-.398-.243 1.904 1.904 0 0 0-.503-.051H4.73v2.643h1.004c.197 0 .354-.019.472-.056a.938.938 0 0 0 .375-.21c.123-.12.217-.275.283-.468.054-.157.081-.345.081-.562a1.95 1.95 0 0 0-.086-.625zm-.52 1.085a.56.56 0 0 1-.14.256.492.492 0 0 1-.215.11 1.453 1.453 0 0 1-.322.025h-.399v-1.75h.24c.218 0 .364.008.438.024.1.022.182.064.247.125a.605.605 0 0 1 .152.256c.036.11.054.266.054.47 0 .205-.018.366-.054.484zM9.213 7.51v.447H7.935v.626H9.04v.447H7.935v1.123h-.534V7.511h1.812z"/></mask><path fill-rule="evenodd" clip-rule="evenodd" d="M11.376.094l4.076 4.236a.308.308 0 0 1 .086.213V14.77c0 .678-.553 1.23-1.233 1.23H5.079c-.68 0-1.233-.552-1.233-1.23V12H1.383a.923.923 0 0 1-.922-.922V6.46c0-.509.414-.923.922-.923h2.463V1.233C3.846.553 4.399 0 5.079 0h6.075c.084 0 .164.034.222.094zm3.2 4.214L11.23.83v3.477h3.346zm-13.5 6.77c0 .169.138.307.307.307h8.31a.307.307 0 0 0 .306-.307V6.46a.307.307 0 0 0-.307-.307H1.383a.307.307 0 0 0-.307.307v4.617zm13.229 4.307c.34 0 .617-.276.617-.615V4.923h-4a.308.308 0 0 1-.307-.308v-4H5.079a.618.618 0 0 0-.618.618v4.305h5.231c.509 0 .923.414.923.923v4.617a.923.923 0 0 1-.923.922H4.461v2.77c0 .339.277.615.618.615h9.226zM3.76 7.55c.151.04.278.126.38.258a.82.82 0 0 1 .153.515.866.866 0 0 1-.088.41.725.725 0 0 1-.224.26.773.773 0 0 1-.277.125 3.045 3.045 0 0 1-.554.038h-.348v.997H2.27V7.511h.856c.325 0 .536.013.635.04zm-.244 1.116a.35.35 0 0 0 .227-.336.341.341 0 0 0-.084-.238.369.369 0 0 0-.215-.117 2.563 2.563 0 0 0-.384-.018h-.258v.75h.292c.21 0 .351-.014.422-.041zm3.343-.434a1.155 1.155 0 0 0-.253-.428.884.884 0 0 0-.398-.243 1.904 1.904 0 0 0-.503-.051H4.73v2.643h1.004c.197 0 .354-.019.472-.056a.938.938 0 0 0 .375-.21c.123-.12.217-.275.283-.468.054-.157.081-.345.081-.562a1.95 1.95 0 0 0-.086-.625zm-.52 1.085a.56.56 0 0 1-.14.256.492.492 0 0 1-.215.11 1.453 1.453 0 0 1-.322.025h-.399v-1.75h.24c.218 0 .364.008.438.024.1.022.182.064.247.125a.605.605 0 0 1 .152.256c.036.11.054.266.054.47 0 .205-.018.366-.054.484zM9.213 7.51v.447H7.935v.626H9.04v.447H7.935v1.123h-.534V7.511h1.812z" fill="#FA6B6B"/><path d="M15.452 4.33l.72-.693-.72.693zM11.376.094l.72-.693-.72.693zM3.846 12h1v-1h-1v1zm0-6.462v1h1v-1h-1zM11.23.831l.72-.694-1.72-1.788V.831h1zm3.346 3.477v1h2.35l-1.63-1.694-.72.694zm-3.346 0h-1v1h1v-1zm3.692.615h1v-1h-1v1zM10.615.615h1v-1h-1v1zM4.46 5.538h-1v1h1v-1zm0 6.462v-1h-1v1h1zm-.32-4.19l.792-.61-.793.61zm-.381-.26l-.26.967.006.001.254-.967zm.533.774h1-1zm-.088.41l-.882-.47.882.47zm-.224.26l-.571-.821.57.82zm-.277.125l.194.981.01-.002.009-.002-.213-.977zm-.902.038v-1h-1v1h1zm0 .997v1h1v-1h-1zm-.533 0h-1v1h1v-1zm0-2.643v-1h-1v1h1zm1.414 1.026l-.826-.564.826.564zm-.167.13l.364.931-.364-.931zm.227-.336h-1 1zm-.084-.238l-.742.67v.001l.742-.67zm-.215-.117l-.185.983.008.001.177-.984zm-.642-.018v-1h-1v1h1zm0 .75h-1v1h1v-1zm3.804-.903l.726-.688-.726.688zm.253.428l.946-.323-.946.323zm-.651-.671l.283-.96h-.003l-.28.96zM4.73 7.51v-1h-1v1h1zm0 2.643h-1v1h1v-1zm1.476-.056l.302.954.003-.002-.305-.952zm.375-.21l-.696-.718-.002.001.698.716zm.283-.468l.946.325-.946-.325zm-.664.154l-.671-.742.67.742zm.14-.256l.956.292-.956-.292zm-.356.366l-.242-.97h-.005l.247.97zm-.72.025h-1v1h1v-1zm0-1.75v-1h-1v1h1zm.677.024l-.22.976.008.002.212-.978zm.247.125l-.687.727.687-.727zm.152.256l.95-.313-.95.313zm2.873-.406v1h1v-1h-1zm0-.447h1v-1h-1v1zm-1.278.447v-1h-1v1h1zm0 .626h-1v1h1v-1zm1.104 0h1v-1h-1v1zm0 .447v1h1v-1h-1zm-1.104 0v-1h-1v1h1zm0 1.123v1h1v-1h-1zm-.534 0h-1v1h1v-1zm0-2.643v-1h-1v1h1zm8.771-3.875L12.096-.599 10.656.788l4.075 4.235 1.441-1.387zm.366.907c0-.338-.131-.663-.365-.906L14.73 5.023a.692.692 0 0 1-.193-.48h2zm0 10.227V4.543h-2V14.77h2zM14.305 17c1.23 0 2.233-.997 2.233-2.23h-2c0 .123-.103.23-.233.23v2zm-9.226 0h9.226v-2H5.079v2zm-2.233-2.23A2.233 2.233 0 0 0 5.079 17v-2a.233.233 0 0 1-.233-.23h-2zm0-2.77v2.77h2V12h-2zm-1.463 1h2.463v-2H1.383v2zm-1.922-1.922A1.923 1.923 0 0 0 1.383 13v-2c.044 0 .078.034.078.078h-2zm0-4.617v4.617h2V6.46h-2zm1.922-1.923c-1.06 0-1.922.862-1.922 1.923h2a.077.077 0 0 1-.078.077v-2zm2.463 0H1.383v2h2.463v-2zm-1-3.305v4.305h2V1.233h-2zM5.079-1C3.847-1 2.846 0 2.846 1.233h2c0-.127.105-.233.233-.233v-2zm6.075 0H5.079v2h6.075v-2zm.942.4a1.308 1.308 0 0 0-.942-.4v2a.692.692 0 0 1-.499-.212l1.44-1.387zM10.51 1.525l3.346 3.477 1.44-1.387L11.952.137 10.51 1.524zm1.72 2.784V.83h-2v3.477h2zm2.346-1H11.23v2h3.346v-2zM1.383 10.385c.383 0 .693.309.693.693h-2c0 .722.587 1.307 1.307 1.307v-2zm8.31 0h-8.31v2h8.31v-2zm-.694.693c0-.384.311-.693.693-.693v2c.721 0 1.307-.585 1.307-1.307H9zM9 6.46v4.617h2V6.46H9zm.693.693A.693.693 0 0 1 9 6.46h2c0-.722-.586-1.307-1.307-1.307v2zm-8.309 0h8.31v-2h-8.31v2zm.693-.693c0 .383-.31.693-.693.693v-2c-.72 0-1.307.585-1.307 1.307h2zm0 4.617V6.46h-2v4.617h2zm11.846 3.692c0-.218.176-.385.383-.385v2c.888 0 1.617-.719 1.617-1.615h-2zm0-9.847v9.847h2V4.923h-2zm-3 1h4v-2h-4v2zM9.615 4.615c0 .723.585 1.308 1.307 1.308v-2c.383 0 .693.31.693.692h-2zm0-4v4h2v-4h-2zm-4.536 1h5.536v-2H5.079v2zm.382-.382a.382.382 0 0 1-.382.382v-2c-.892 0-1.618.724-1.618 1.618h2zm0 4.305V1.233h-2v4.305h2zm4.231-1H4.461v2h5.231v-2zm1.923 1.923a1.923 1.923 0 0 0-1.923-1.923v2a.077.077 0 0 1-.077-.077h2zm0 4.617V6.46h-2v4.617h2zM9.692 13a1.923 1.923 0 0 0 1.923-1.922h-2c0-.044.034-.078.077-.078v2zm-5.231 0h5.231v-2H4.461v2zm1 1.77V12h-2v2.77h2zm-.382-.385c.207 0 .382.167.382.385h-2c0 .895.729 1.615 1.618 1.615v-2zm9.226 0H5.079v2h9.226v-2zM4.933 7.2a1.692 1.692 0 0 0-.92-.617l-.507 1.935a.33.33 0 0 1-.158-.099L4.933 7.2zm.36 1.124c0-.374-.092-.776-.36-1.124L3.348 8.42a.306.306 0 0 1-.051-.097c-.007-.021-.004-.024-.004.001h2zm-.205.88c.155-.292.205-.6.205-.88h-2c0 .045-.008.01.03-.06l1.765.94zm-.537.61a1.72 1.72 0 0 0 .537-.61l-1.765-.94a.287.287 0 0 1 .087-.091l1.14 1.642zm-.634.282a1.77 1.77 0 0 0 .635-.281L3.41 8.173s.028-.02.08-.03l.427 1.953zm-.767.061c.262 0 .524-.012.748-.057L3.51 8.138c-.03.006-.137.02-.359.02v2zm-.348 0h.348v-2h-.348v2zm1-.003v-.997h-2v.997h2zm-1.533 1h.533v-2H2.27v2zm-1-3.643v2.643h2V7.511h-2zm1.856-1H2.27v2h.856v-2zm.894.074c-.25-.067-.598-.074-.894-.074v2a5.71 5.71 0 0 1 .413.014c.015.002-.002.001-.037-.008l.518-1.932zM2.857 7.973a.65.65 0 0 1 .296-.238l.727 1.863a1.35 1.35 0 0 0 .629-.497L2.857 7.973zm-.114.359c0-.104.03-.236.114-.36l1.652 1.13c.164-.242.235-.511.234-.771h-2zm.174.432a.686.686 0 0 1-.137-.229.612.612 0 0 1-.037-.204h2a1.34 1.34 0 0 0-.342-.908L2.917 8.764zm.35.196a.61.61 0 0 1-.35-.196L4.4 7.423a1.369 1.369 0 0 0-.78-.43L3.268 8.96zm-.207-.002a4.322 4.322 0 0 1 .23.006c.007 0-.006 0-.031-.005l.37-1.965a3.338 3.338 0 0 0-.569-.036v2zm-.258 0h.258v-2h-.258v2zm1-.25v-.75h-2v.75h2zm-.708-1h-.292v2h.292v-2zm.06.027a.698.698 0 0 1 .104-.031c.012-.003.014-.003.002-.001a2.693 2.693 0 0 1-.165.006v2c.123 0 .246-.005.36-.016.098-.01.26-.03.425-.095l-.727-1.863zm2.727.758a.19.19 0 0 1 .032.063l1.892-.646a2.154 2.154 0 0 0-.473-.793L5.881 8.493zm.044.028a.111.111 0 0 1-.045-.028l1.452-1.376a1.884 1.884 0 0 0-.841-.515l-.566 1.919zm-.22-.01c.086 0 .148.003.19.008.046.004.052.008.033.003l.56-1.92a2.854 2.854 0 0 0-.783-.091v2zm-.975 0h.975v-2H4.73v2zm1 1.643V7.511h-2v2.643h2zm.004-1H4.73v2h1.004v-2zm.17-.01c.016-.004.011 0-.022.003-.031.004-.08.007-.148.007v2c.246 0 .518-.021.774-.102l-.604-1.907zm-.02.027a.229.229 0 0 1 .044-.035l-.027.01.61 1.904c.265-.084.538-.223.768-.447L5.883 9.171zm.035-.076c-.025.072-.044.084-.034.075l1.393 1.435a2.17 2.17 0 0 0 .532-.86l-1.891-.65zm.026-.237a.778.778 0 0 1-.027.237l1.892.65a2.7 2.7 0 0 0 .135-.887h-2zm-.032-.302c.01.034.032.125.032.302h2c0-.318-.036-.644-.14-.948l-1.892.646zm.958 1.76c.25-.227.365-.51.425-.706l-1.913-.583c-.003.01 0-.005.018-.036a.619.619 0 0 1 .128-.159l1.342 1.483zm-.644.338c.22-.056.447-.16.644-.34L5.529 8.833a.512.512 0 0 1 .213-.119l.485 1.94zm-.565.055c.158 0 .373-.006.57-.056l-.495-1.939a.457.457 0 0 1 .046-.009h-.007a1.24 1.24 0 0 1-.114.004v2zm-.399 0h.399v-2h-.399v2zm-1-2.75v1.75h2v-1.75h-2zm1.24-1h-.24v2h.24v-2zm.659.049c-.2-.045-.456-.05-.659-.05v2a3.918 3.918 0 0 1 .255.008c.006 0-.009 0-.037-.007l.44-1.951zm.713.373a1.506 1.506 0 0 0-.722-.375l-.424 1.955a.497.497 0 0 1-.228-.126L6.875 7.38zm.414.67a1.6 1.6 0 0 0-.414-.67L5.5 8.835a.42.42 0 0 1-.111-.158l1.9-.626zm.105.783c0-.241-.019-.523-.105-.783l-1.9.626c-.009-.029-.006-.033-.002 0 .003.032.007.083.007.157h2zm-.098.776c.078-.254.098-.528.098-.776h-2c0 .074-.004.128-.008.164-.004.037-.007.044-.003.03l1.913.582zm2.917-1.652v-.447h-2v.447h2zm-2.278 1h1.278v-2H7.935v2zm1-.374v-.626h-2v.626h2zm.104-1H7.935v2H9.04v-2zm1 1.447v-.447h-2v.447h2zm-2.104 1H9.04v-2H7.935v2zm1 .123V9.031h-2v1.123h2zm-1.534 1h.534v-2h-.534v2zm-1-3.643v2.643h2V7.511h-2zm2.812-1H7.401v2h1.812v-2z" fill="#FA6B6B" mask="url(#path-1-inside-1)"/></svg>