<svg width="13" height="15" fill="none" xmlns="http://www.w3.org/2000/svg"><path d="M8.83 1.102c-.141.138-.212.277-.353.346-.495.552-1.06 1.105-1.554 1.726L5.793 2.07c-.212-.207-.354-.207-.495 0-.353.415-.777.83-1.13 1.244a7.045 7.045 0 0 0-1.13 1.519 4.695 4.695 0 0 0 .211 4.973.955.955 0 0 0-.211.276L.494 12.775A1.798 1.798 0 0 0 0 13.81c.015.094.039.186.07.276.047.178.144.34.281.467a1.02 1.02 0 0 0 1.043.204.997.997 0 0 0 .443-.326c.184-.166.35-.351.494-.552.777-.83 1.554-1.727 2.331-2.487a.26.26 0 0 0 .212.07c.89.533 1.95.73 2.978.552a4.29 4.29 0 0 0 2.603-1.52c.494-.552 1.06-1.105 1.554-1.726.212-.277.212-.346 0-.553l-1.13-1.105.282-.276c.495-.553 1.13-1.174 1.625-1.796a.72.72 0 0 0 .141-.829.528.528 0 0 0-.249-.294.548.548 0 0 0-.387-.051c-.19.074-.36.193-.494.345-.565.622-1.13 1.244-1.766 1.865-.636-.69-1.342-1.312-1.978-1.934.07-.069.07-.138.141-.138A42.87 42.87 0 0 1 9.96 2.138a.617.617 0 0 0 .204-.5.608.608 0 0 0-.274-.467.609.609 0 0 0-.424-.207.45.45 0 0 0-.636.138z" fill="#132968"/></svg>