<svg width="18" height="18" fill="none" xmlns="http://www.w3.org/2000/svg"><path d="M10.35 4.23l3.42 3.42-6.12 6.12-3.42-3.42 6.12-6.12zM8.1 14.67l6.57-6.57a.495.495 0 0 0 .18-.45.688.688 0 0 0-.18-.45L10.8 3.331a.652.652 0 0 0-.9 0L3.332 9.9a.495.495 0 0 0-.18.45.687.687 0 0 0 .18.45l3.87 3.869a.688.688 0 0 0 .45.18.329.329 0 0 0 .45-.18zm9.538-6.749L7.92 17.638a1.353 1.353 0 0 1-.99.36 1.352 1.352 0 0 1-.99-.36l-1.35-1.35c.387-.381.613-.896.63-1.44a1.79 1.79 0 0 0-.63-1.439 2.124 2.124 0 0 0-1.439-.63 1.791 1.791 0 0 0-1.44.63l-1.35-1.35a1.354 1.354 0 0 1-.36-.99 1.354 1.354 0 0 1 .36-.99L10.08.363a1.353 1.353 0 0 1 .99-.36 1.354 1.354 0 0 1 .99.36l1.35 1.35a2.124 2.124 0 0 0-.63 1.44 1.791 1.791 0 0 0 .63 1.439c.38.386.896.612 1.439.63a1.79 1.79 0 0 0 1.44-.63l1.35 1.35a1.353 1.353 0 0 1 .36.99c-.024.357-.15.7-.36.99z" fill="#132968"/></svg>