<svg width="15" height="11" fill="none" xmlns="http://www.w3.org/2000/svg"><path d="M15 6.309c0 .144-.076.362-.227.362a.699.699 0 0 1-.38.217.43.43 0 0 1-.283-.063.398.398 0 0 1-.17-.227l-1.44-2.1h-.303v.796l1.59 2.536a.265.265 0 0 1 .077.217.363.363 0 0 1-.152.29.585.585 0 0 1-.303.145h-1.212v1.81a.422.422 0 0 1-.045.251.447.447 0 0 1-.182.184.837.837 0 0 1-.53.218h-1.061a.477.477 0 0 1-.262-.043.45.45 0 0 1-.193-.175.784.784 0 0 1-.227-.434V8.627H8.485a.409.409 0 0 1-.303-.145.63.63 0 0 1-.076-.362.255.255 0 0 1 .076-.218l1.59-2.535V4.57H9.47l-1.44 2.1a.532.532 0 0 1-.186.204.565.565 0 0 1-.268.087c-.152 0-.379-.073-.379-.218a.658.658 0 0 1-.227-.362.63.63 0 0 1 .075-.362l1.591-2.463c.114-.194.279-.356.478-.47.2-.115.426-.178.659-.182h2.424c.23.013.454.08.652.193.197.113.364.27.484.459L15 5.946v.363zm-2.576-4.927a1.69 1.69 0 0 1-.378 1.015 1.329 1.329 0 0 1-.488.294 1.376 1.376 0 0 1-.573.068 1.69 1.69 0 0 1-1.06-.362 1.255 1.255 0 0 1-.31-.467 1.21 1.21 0 0 1-.07-.548c.01-.368.143-.723.38-1.014.137-.131.304-.232.487-.295.183-.062.38-.085.573-.067a1.69 1.69 0 0 1 1.06.362c.225.297.357.649.38 1.014zm-6.06 2.753v2.536c0 .145-.076.362-.228.362a.699.699 0 0 1-.378.217c-.152 0-.38-.072-.38-.217a.658.658 0 0 1-.226-.362V4.497h-.38v5.651a.422.422 0 0 1-.044.25.447.447 0 0 1-.183.185 1.643 1.643 0 0 1-.53.217.56.56 0 0 1-.256-.054.534.534 0 0 1-.198-.163.63.63 0 0 1-.228-.435V7.323h-.378v2.825a.422.422 0 0 1-.045.25.447.447 0 0 1-.183.185.65.65 0 0 1-.454.217.56.56 0 0 1-.256-.054.534.534 0 0 1-.199-.163.785.785 0 0 1-.227-.435V4.57h-.379v2.173c0 .145-.076.362-.227.362a.699.699 0 0 1-.379.218c-.151 0-.379-.073-.379-.218A.63.63 0 0 1 0 6.671V4.135c.012-.324.146-.633.379-.869.107-.129.247-.23.406-.293.159-.063.332-.087.503-.07h4.09c.34.012.663.14.91.363 0 .29.076.58.076.87zM4.545 1.382a1.69 1.69 0 0 1-.378 1.015 1.329 1.329 0 0 1-.488.294 1.375 1.375 0 0 1-.573.068 1.638 1.638 0 0 1-.985-.362 1.255 1.255 0 0 1-.308-.467 1.21 1.21 0 0 1-.07-.548A1.68 1.68 0 0 1 2.121.368 1.346 1.346 0 0 1 3.182.006a1.69 1.69 0 0 1 1.06.362c.161.32.264.662.303 1.014z" fill="#132968"/></svg>