<svg width="14" height="10" fill="none" xmlns="http://www.w3.org/2000/svg"><path d="M7.001 9.953a2.088 2.088 0 0 1-.63-.477c-.35-.34-.49-.545-.49-.682a.38.38 0 0 1 .14-.253.4.4 0 0 1 .28-.088c.28 0 .56-.204.77-.204.268.02.529.09.77.204.35.137.42.273.42.341-.13.248-.296.478-.49.682-.49.273-.7.477-.77.477zm1.89-1.909a1.206 1.206 0 0 1-.28-.204 2.213 2.213 0 0 0-.7-.34 2.123 2.123 0 0 0-1.82 0l-.7.34c-.35.136-.35.204-.35.204a1.722 1.722 0 0 1-.63-.545c-.35-.34-.49-.545-.49-.681a.244.244 0 0 1 .07-.205 4.056 4.056 0 0 1 1.4-.886 4.922 4.922 0 0 1 1.68-.341 5.273 5.273 0 0 1 1.68.34 3.26 3.26 0 0 1 1.4.887.249.249 0 0 1 .07.205 3.091 3.091 0 0 1-.49.681c-.49.341-.7.545-.84.545zm1.96-1.976A.264.264 0 0 1 10.64 6a8.953 8.953 0 0 0-1.75-1.091A4.243 4.243 0 0 0 7 4.569c-.406 0-.808.07-1.19.204a9.372 9.372 0 0 1-1.05.34c-.272.15-.553.287-.84.41-.28.136-.42.272-.56.34l-.21.205a1.722 1.722 0 0 1-.63-.546c-.28-.34-.56-.545-.56-.681a.244.244 0 0 1 .07-.205 7.856 7.856 0 0 1 2.31-1.5 7.424 7.424 0 0 1 2.73-.477c.93.02 1.85.181 2.73.478a5.85 5.85 0 0 1 2.31 1.5.25.25 0 0 1 .07.204 3.068 3.068 0 0 1-.49.681 2.407 2.407 0 0 1-.84.546zm1.96-1.909c-.07 0-.14 0-.14-.068a10.296 10.296 0 0 0-2.66-1.704A8.72 8.72 0 0 0 7 1.84a8.435 8.435 0 0 0-3.01.478 9.696 9.696 0 0 0-2.66 1.704c-.07.068-.07.136-.14.136a1.722 1.722 0 0 1-.63-.545c-.28-.341-.559-.546-.559-.682a.244.244 0 0 1 .07-.204A9.58 9.58 0 0 1 3.222.683C4.422.215 5.707-.017 7 0c1.297.012 2.58.266 3.78.75a8.326 8.326 0 0 1 3.149 2.045c.07 0 .07.068.07.136-.13.248-.296.477-.49.682a4.07 4.07 0 0 1-.7.545z" fill="#132968"/></svg>