<svg width="13" height="14" viewBox="0 0 13 14" fill="none" xmlns="http://www.w3.org/2000/svg">
<path d="M12.4852 8.76816L11.1606 9.04004L12.6944 9.85568C12.8231 9.93603 12.9211 10.0555 12.9733 10.1955C12.9993 10.2522 13.0065 10.3154 12.994 10.3763C12.9815 10.4372 12.9499 10.4928 12.9035 10.5354C12.8211 10.6608 12.6986 10.7563 12.555 10.8073C12.4968 10.8326 12.432 10.8397 12.3695 10.8275C12.3071 10.8153 12.25 10.7845 12.2064 10.7393L10.6726 9.92365L11.0909 11.1471C11.1606 11.351 11.1606 11.487 10.9515 11.6229C10.8196 11.7464 10.6461 11.8189 10.4634 11.8268C10.3729 11.8211 10.2876 11.7834 10.2235 11.7209C10.1594 11.6584 10.1207 11.5752 10.1148 11.487L9.27824 9.17598L7.117 8.02048V10.3994L8.79022 12.1667C8.87746 12.2597 8.92702 12.3805 8.92965 12.5065C8.92965 12.6425 8.92965 12.7104 8.85993 12.7784C8.78049 12.8624 8.68598 12.9315 8.58107 12.9823C8.47401 13.0372 8.35296 13.0608 8.23248 13.0503C8.09304 13.0503 8.02333 12.9823 7.88389 12.8464L6.97757 11.8268V13.4581C6.97665 13.5522 6.94742 13.6439 6.8935 13.722C6.83958 13.8 6.76335 13.8609 6.67426 13.8971C6.58518 13.9333 6.48715 13.9432 6.39234 13.9256C6.29754 13.9079 6.21013 13.8636 6.14096 13.798C6.08978 13.7577 6.05008 13.7053 6.02566 13.6458C6.00124 13.5863 5.99293 13.5217 6.00152 13.4581V11.8268L5.0952 12.8464C4.98886 12.9292 4.87162 12.9978 4.74661 13.0503C4.60718 13.1183 4.53746 13.0503 4.39802 12.9823C4.32831 12.9143 4.18887 12.8464 4.11915 12.7784C4.06376 12.6986 4.03907 12.6023 4.04944 12.5065C4.04944 12.3706 4.11915 12.3026 4.18887 12.1667L5.86209 10.3994V8.02048L3.70085 9.17598L2.86424 11.419C2.79452 11.6229 2.65509 11.7588 2.51565 11.7588C2.42302 11.7708 2.32879 11.7582 2.2429 11.7223C2.15701 11.6864 2.08264 11.6286 2.02763 11.5549C1.95932 11.4975 1.90972 11.4219 1.88494 11.3374C1.86016 11.2528 1.8613 11.1631 1.8882 11.0791L2.3065 9.85568L0.772721 10.6713C0.663696 10.7206 0.544214 10.7439 0.424134 10.7393C0.277269 10.6941 0.152967 10.5972 0.075547 10.4674V10.1276C0.127693 9.98749 0.225696 9.86806 0.354417 9.78771L1.8882 8.97207L0.563569 8.70019C0.486667 8.68719 0.414385 8.65545 0.35344 8.60792C0.292495 8.56038 0.244866 8.4986 0.214982 8.42831C0.075547 8.36034 0.075547 8.2244 0.075547 8.08846C0.0742329 8.01839 0.0931454 7.94937 0.130127 7.88928C0.167108 7.82919 0.220669 7.78045 0.284699 7.7486C0.424134 7.68063 0.563569 7.61266 0.633286 7.68063L3.07339 8.15643L5.23463 7.00093L3.07339 5.84544L0.633286 6.18529H0.493851C0.364571 6.18279 0.240651 6.13446 0.145264 6.04935C0.0579634 5.95635 0.00839546 5.83554 0.00582969 5.7095C0.0011282 5.59243 0.0250234 5.47595 0.075547 5.36965C0.108207 5.30722 0.158207 5.255 0.219843 5.21895C0.281478 5.18289 0.352267 5.16446 0.424134 5.16574L1.74876 4.89386L0.284699 4.07821C0.155979 3.99787 0.0579759 3.87843 0.00582969 3.73836C-0.0123555 3.62062 0.01231 3.50038 0.075547 3.39851C0.157959 3.27302 0.280463 3.17747 0.424134 3.12663C0.482284 3.10127 0.54709 3.09419 0.609556 3.10637C0.672022 3.11855 0.729049 3.14939 0.772721 3.1946L2.3065 4.01024L1.8882 2.78678C1.81848 2.58287 1.81848 2.44693 2.02763 2.37896C2.16644 2.26606 2.33607 2.19519 2.51565 2.17505C2.72481 2.17505 2.79452 2.31099 2.86424 2.5149L3.70085 4.82589L5.86209 5.98138V3.60242L4.18887 1.8352C4.11915 1.69926 4.04944 1.63129 4.04944 1.49534C4.04944 1.3594 4.04944 1.29143 4.11915 1.22346C4.1986 1.13951 4.29311 1.0704 4.39802 1.01955C4.53746 0.951583 4.60718 0.883613 4.74661 0.951583C4.87683 0.993619 4.99587 1.06326 5.0952 1.15549L6.00152 2.17505V0.475791C6.00415 0.349763 6.05371 0.22897 6.14096 0.13594C6.24895 0.0727533 6.36664 0.0268573 6.48954 0C6.61881 0.00256346 6.74271 0.0508807 6.83813 0.13594C6.88931 0.176181 6.92901 0.228575 6.95343 0.28809C6.97785 0.347605 6.98616 0.412242 6.97757 0.475791V2.10708L7.88389 1.08752C7.99023 1.00468 8.10746 0.936102 8.23248 0.883613C8.35296 0.873073 8.47401 0.896675 8.58107 0.951583C8.65078 1.01955 8.79022 1.08752 8.85993 1.15549C8.91533 1.23527 8.94002 1.33157 8.92965 1.42737C8.92965 1.56331 8.85994 1.63129 8.79022 1.76723L7.117 3.53445V5.91341L9.27824 4.75792L10.1148 2.5149C10.1846 2.31099 10.324 2.17505 10.4634 2.17505C10.5561 2.16309 10.6503 2.17572 10.7362 2.21161C10.8221 2.2475 10.8964 2.30531 10.9515 2.37896C11.0909 2.58287 11.1606 2.71881 11.0909 2.85475L10.6726 4.07821L12.2064 3.26257C12.3154 3.21329 12.4349 3.18999 12.555 3.1946C12.6986 3.24544 12.8211 3.34099 12.9035 3.46648V3.80633C12.8514 3.9464 12.7534 4.06584 12.6247 4.14618L11.0909 4.96183L12.4155 5.23371C12.4874 5.23243 12.5582 5.25086 12.6198 5.28692C12.6814 5.32297 12.7314 5.37519 12.7641 5.43762C12.8289 5.54291 12.876 5.65765 12.9035 5.77747C12.9035 5.91341 12.8338 5.98138 12.7641 6.11732C12.6687 6.20238 12.5448 6.2507 12.4155 6.25326H12.2761L9.83598 5.77747L7.60502 7.00093L9.76626 8.15643L12.2064 7.68063C12.3458 7.68063 12.555 7.68063 12.555 7.7486C12.619 7.78045 12.6725 7.82919 12.7095 7.88928C12.7465 7.94937 12.7654 8.01839 12.7641 8.08846C12.7823 8.2062 12.7576 8.32644 12.6944 8.42831C12.8338 8.63222 12.6944 8.76816 12.4852 8.76816Z" fill="#132968"/>
</svg>
