<svg width="14" height="13" viewBox="0 0 14 13" fill="none" xmlns="http://www.w3.org/2000/svg">
<path d="M4.73554 9.65145C8.00863 9.4371 10.0282 9.2942 10.9335 9.2942C11.1633 9.26587 11.3961 9.30445 11.6055 9.40553C11.8148 9.50661 11.9922 9.66612 12.1174 9.86579C12.1745 10.0257 12.1982 10.1961 12.187 10.3659L11.6299 12.438C11.5847 12.589 11.4916 12.7202 11.3655 12.8108C11.2393 12.9014 11.0873 12.9462 10.9335 12.9381H3.89985C3.75086 12.926 3.60774 12.8732 3.4853 12.7853C3.36285 12.6973 3.26555 12.5774 3.20345 12.438C2.64633 11.5806 1.67137 8.86551 0.208921 4.29278C-0.0696402 2.50655 -0.0696402 1.29192 0.208921 0.720328C0.402853 0.427235 0.683906 0.206284 1.01019 0.0904058C1.33648 -0.0254727 1.69053 -0.0300737 2.01957 0.0772882C2.78561 0.577431 2.92489 1.86351 2.50705 3.86408L4.73554 9.65145ZM13.9977 5.00727C14.008 5.10798 13.9834 5.2092 13.928 5.29306L12.6049 6.65059C12.5192 6.6975 12.4235 6.72204 12.3263 6.72204C12.2292 6.72204 12.1335 6.6975 12.0478 6.65059C11.9924 6.56673 11.9678 6.4655 11.9781 6.36479V5.65031H8.00863V6.36479C8.01899 6.4655 7.99432 6.56673 7.93899 6.65059C7.85326 6.6975 7.75759 6.72204 7.66043 6.72204C7.56326 6.72204 7.4676 6.6975 7.38187 6.65059L6.0587 5.29306C6.00337 5.2092 5.9787 5.10798 5.98906 5.00727C5.9787 4.90656 6.00337 4.80533 6.0587 4.72147L7.38187 3.36394C7.4676 3.31703 7.56326 3.29249 7.66043 3.29249C7.75759 3.29249 7.85326 3.31703 7.93899 3.36394C7.99432 3.4478 8.01899 3.54902 8.00863 3.64973V4.36422H11.9781V3.64973C11.9678 3.54903 11.9925 3.44782 12.0478 3.36394C12.1335 3.31703 12.2292 3.29249 12.3263 3.29249C12.4235 3.29249 12.5192 3.31703 12.6049 3.36394L13.928 4.72147C13.9834 4.80533 14.008 4.90656 13.9977 5.00727Z" fill="#132968"/>
</svg>
