<svg width="13" height="15" viewBox="0 0 13 15" fill="none" xmlns="http://www.w3.org/2000/svg">
<path d="M10.3103 4.65137V3.7511C10.3103 2.75625 9.91677 1.80214 9.2162 1.09867C8.51564 0.395204 7.56546 0 6.57471 0C5.58396 0 4.63379 0.395204 3.93322 1.09867C3.23266 1.80214 2.83908 2.75625 2.83908 3.7511V4.65137H0V12.6037C0.00314115 13.2195 0.248166 13.8093 0.681839 14.2447C1.11551 14.6802 1.70279 14.9262 2.31609 14.9294H10.6839C11.2972 14.9262 11.8845 14.6802 12.3182 14.2447C12.7518 13.8093 12.9969 13.2195 13 12.6037V4.65137H10.3103ZM4.7069 3.7511C4.7069 3.25367 4.90368 2.77662 5.25397 2.42489C5.60425 2.07315 6.07934 1.87555 6.57471 1.87555C7.07009 1.87555 7.54518 2.07315 7.89546 2.42489C8.24574 2.77662 8.44253 3.25367 8.44253 3.7511V4.65137H4.7069V3.7511ZM9.41379 7.27714C9.2808 7.27714 9.1508 7.23754 9.04022 7.16334C8.92964 7.08915 8.84346 6.9837 8.79256 6.86033C8.74167 6.73695 8.72836 6.60119 8.7543 6.47021C8.78025 6.33924 8.84429 6.21893 8.93832 6.1245C9.03236 6.03007 9.15218 5.96577 9.28261 5.93971C9.41305 5.91366 9.54825 5.92703 9.67111 5.97814C9.79398 6.02924 9.899 6.11578 9.97289 6.22682C10.0468 6.33785 10.0862 6.4684 10.0862 6.60194C10.0866 6.69072 10.0695 6.7787 10.0358 6.86079C10.0022 6.94289 9.95266 7.01748 9.89014 7.08026C9.82763 7.14304 9.75334 7.19276 9.67158 7.22655C9.58982 7.26034 9.50221 7.27753 9.41379 7.27714ZM3.73563 7.27714C3.60264 7.27714 3.47264 7.23754 3.36206 7.16334C3.25148 7.08915 3.1653 6.9837 3.1144 6.86033C3.06351 6.73695 3.05019 6.60119 3.07614 6.47021C3.10208 6.33924 3.16613 6.21893 3.26016 6.1245C3.3542 6.03007 3.47402 5.96577 3.60445 5.93971C3.73489 5.91366 3.87009 5.92703 3.99295 5.97814C4.11582 6.02924 4.22084 6.11578 4.29472 6.22682C4.36861 6.33785 4.40805 6.4684 4.40805 6.60194C4.41474 6.69233 4.40194 6.7831 4.37052 6.86807C4.33909 6.95304 4.28979 7.0302 4.22596 7.0943C4.16213 7.15839 4.08529 7.2079 4.00067 7.23945C3.91605 7.27101 3.82565 7.28386 3.73563 7.27714Z" fill="#132968"/>
</svg>
