<svg width="13" height="15" fill="none" xmlns="http://www.w3.org/2000/svg"><path d="M10.31 4.651v-.9c0-.995-.393-1.949-1.094-2.652a3.728 3.728 0 0 0-5.283 0A3.759 3.759 0 0 0 2.84 3.75v.9H0v7.953c.003.616.248 1.205.682 1.64a2.323 2.323 0 0 0 1.634.685h8.368a2.324 2.324 0 0 0 1.634-.684 2.343 2.343 0 0 0 .682-1.64V4.65h-2.69zm-5.603-.9c0-.497.197-.974.547-1.326a1.864 1.864 0 0 1 2.641 0c.35.352.548.829.548 1.326v.9H4.707v-.9zm4.707 3.526a.67.67 0 0 1-.621-.417.678.678 0 0 1 .49-.92.67.67 0 0 1 .69.287.677.677 0 0 1-.56 1.05zm-5.678 0a.67.67 0 0 1-.622-.417.678.678 0 0 1 .49-.92.67.67 0 0 1 .69.287.677.677 0 0 1 .114.375.633.633 0 0 1-.407.637.625.625 0 0 1-.265.038z" fill="#132968"/></svg>