<svg width="15" height="13" viewBox="0 0 15 13" fill="none" xmlns="http://www.w3.org/2000/svg">
<path d="M0.00109615 3.70123V3.237C0.000699135 3.14544 0.0178835 3.05471 0.0516568 2.97004C0.0854301 2.88537 0.135123 2.80844 0.197867 2.74369C0.260611 2.67895 0.335163 2.62767 0.417218 2.59282C0.499273 2.55797 0.587205 2.54024 0.675938 2.54065H11.2485V1.07058C11.2484 0.927187 11.2889 0.786888 11.3649 0.666865C11.441 0.546843 11.5493 0.452307 11.6766 0.39483C11.8039 0.337354 11.9447 0.319431 12.0818 0.343258C12.2188 0.367085 12.3461 0.431626 12.4482 0.528981L14.7726 2.92751C14.8433 2.98947 14.9 3.06654 14.939 3.15338C14.9779 3.24022 14.998 3.33475 14.998 3.43043C14.998 3.52611 14.9779 3.62064 14.939 3.70748C14.9 3.79432 14.8433 3.87139 14.7726 3.93335L12.4482 6.33188C12.3491 6.43747 12.221 6.50927 12.0813 6.53768C11.9415 6.56608 11.7966 6.54973 11.6661 6.49081C11.5356 6.43189 11.4257 6.33321 11.351 6.20801C11.2764 6.08281 11.2406 5.93705 11.2485 5.79028V4.32021H0.675938C0.590346 4.33622 0.502347 4.33193 0.418597 4.30768C0.334847 4.28342 0.257541 4.23983 0.192526 4.18019C0.127512 4.12056 0.076492 4.04645 0.0433273 3.96347C0.0101625 3.8805 -0.00427876 3.79082 0.00109615 3.70123ZM14.3227 8.26618H3.75022V6.79611C3.75026 6.65271 3.70978 6.51242 3.63373 6.39239C3.55768 6.27237 3.44937 6.17783 3.32205 6.12036C3.19473 6.06288 3.05394 6.04496 2.9169 6.06879C2.77986 6.09261 2.65253 6.15715 2.5505 6.25451L0.226043 8.65304C0.155387 8.715 0.0986299 8.79207 0.0597058 8.87891C0.0207818 8.96575 0.000621336 9.06028 0.000621336 9.15596C0.000621336 9.25164 0.0207818 9.34617 0.0597058 9.43301C0.0986299 9.51985 0.155387 9.59692 0.226043 9.65888L2.5505 12.0574C2.64962 12.163 2.77764 12.2348 2.91742 12.2632C3.05719 12.2916 3.20204 12.2753 3.33256 12.2163C3.46307 12.1574 3.57302 12.0587 3.64767 11.9335C3.72231 11.8083 3.75809 11.6626 3.75022 11.5158V10.2005H14.3227C14.4115 10.2009 14.4994 10.1832 14.5815 10.1483C14.6635 10.1135 14.7381 10.0622 14.8008 9.99744C14.8635 9.9327 14.9132 9.85577 14.947 9.7711C14.9808 9.68643 14.998 9.59569 14.9976 9.50413V9.0399C15.0055 8.94271 14.994 8.84488 14.9639 8.75244C14.9337 8.66001 14.8856 8.57492 14.8223 8.50242C14.7591 8.42993 14.6822 8.37157 14.5962 8.33094C14.5103 8.29031 14.4172 8.26827 14.3227 8.26618Z" fill="#132968"/>
</svg>
