<svg width="15" height="13" fill="none" xmlns="http://www.w3.org/2000/svg"><path d="M.001 3.701v-.464a.713.713 0 0 1 .197-.493.67.67 0 0 1 .478-.203h10.572V1.07c0-.144.04-.284.117-.404a.721.721 0 0 1 .312-.272.695.695 0 0 1 .771.134l2.325 2.399a.659.659 0 0 1 .225.502.678.678 0 0 1-.225.503l-2.325 2.399a.68.68 0 0 1-.782.159.706.706 0 0 1-.315-.283.74.74 0 0 1-.103-.418V4.32H.677a.557.557 0 0 1-.483-.14A.592.592 0 0 1 0 3.701zm14.322 4.565H3.75v-1.47a.754.754 0 0 0-.116-.404.72.72 0 0 0-.312-.272.694.694 0 0 0-.772.135L.227 8.653a.658.658 0 0 0-.225.503.678.678 0 0 0 .225.503l2.324 2.398a.678.678 0 0 0 .782.159.706.706 0 0 0 .316-.282.74.74 0 0 0 .102-.418V10.2h10.573a.653.653 0 0 0 .478-.203.696.696 0 0 0 .197-.493V9.04a.736.736 0 0 0-.176-.538.693.693 0 0 0-.5-.236z" fill="#132968"/></svg>
