<svg width="18" height="18" viewBox="0 0 18 18" fill="none" xmlns="http://www.w3.org/2000/svg">
<path d="M17.9986 16.2888C17.9987 16.5133 17.9546 16.7357 17.8687 16.9432C17.7828 17.1507 17.6569 17.3393 17.4981 17.4981C17.3393 17.6569 17.1507 17.7828 16.9432 17.8687C16.7357 17.9546 16.5133 17.9987 16.2888 17.9986H1.70987C1.48529 17.9987 1.2629 17.9546 1.05539 17.8687C0.847887 17.7828 0.659345 17.6569 0.500546 17.4981C0.341746 17.3393 0.215803 17.1507 0.129915 16.9432C0.0440284 16.7357 -0.000118055 16.5133 2.37095e-07 16.2888V7.01947C0.0094539 6.76378 0.0700726 6.51258 0.178273 6.28072C0.286474 6.04886 0.44006 5.84105 0.629952 5.66957C1.52988 4.94962 2.24983 4.40966 6.38951 1.43989C7.01947 0.989925 8.18938 0 8.99931 0C9.80925 0 10.9792 0.989925 11.6091 1.43989C15.7488 4.49966 16.4687 5.03962 17.3687 5.66957C17.574 5.82776 17.7384 6.03291 17.848 6.26781C17.9576 6.5027 18.0093 6.76047 17.9986 7.01947V16.2888ZM15.6588 9.35929C15.5688 9.26929 15.3888 9.1793 15.2988 9.26929C14.4889 9.89925 13.319 10.7092 11.6091 11.9691C10.9792 12.4191 9.80925 13.409 8.99931 13.409C8.18938 13.409 7.01947 12.4191 6.38951 11.9691C4.58965 10.7092 3.50973 9.80925 2.69979 9.26929C2.6727 9.24443 2.63987 9.22668 2.60423 9.21763C2.56859 9.20858 2.53126 9.2085 2.49559 9.21742C2.45992 9.22634 2.42702 9.24397 2.39983 9.26873C2.37265 9.29349 2.35203 9.3246 2.33982 9.35929L1.97985 9.80925C1.95499 9.83634 1.93724 9.86918 1.92818 9.90482C1.91913 9.94046 1.91906 9.97779 1.92798 10.0135C1.9369 10.0491 1.95452 10.082 1.97928 10.1092C2.00404 10.1364 2.03516 10.157 2.06984 10.1692C2.87978 10.7992 4.04969 11.6091 5.75956 12.869C6.47951 13.409 7.73941 14.5789 8.99931 14.5789C10.2592 14.5789 11.5191 13.409 12.2391 12.869C13.9489 11.6091 15.1188 10.7992 15.9288 10.1692C16.0188 10.0792 16.1088 9.89925 16.0188 9.80925L15.6588 9.35929Z" fill="#132968"/>
</svg>
