<svg width="15" height="15" viewBox="0 0 15 15" fill="none" xmlns="http://www.w3.org/2000/svg">
<path d="M7.5 0C6.01664 0 4.56659 0.437805 3.33323 1.25805C2.09986 2.0783 1.13856 3.24415 0.570907 4.60817C0.00324965 5.97219 -0.145275 7.47312 0.144114 8.92116C0.433503 10.3692 1.14781 11.6993 2.1967 12.7433C3.2456 13.7873 4.58197 14.4982 6.03683 14.7862C7.49168 15.0743 8.99968 14.9265 10.3701 14.3615C11.7406 13.7965 12.9119 12.8397 13.736 11.6121C14.5601 10.3845 15 8.94125 15 7.46484C14.9941 5.48686 14.202 3.59158 12.7967 2.19293C11.3915 0.794276 9.4873 0.0059074 7.5 0ZM11.4 3.58312C12.3175 4.50874 12.88 5.72517 12.9896 7.02084C13.0992 8.31651 12.749 9.60943 12 10.6747L4.275 2.98594C5.33168 2.20402 6.63892 1.83319 7.95099 1.94317C9.26306 2.05314 10.4896 2.63634 11.4 3.58312ZM3.6 11.4212C2.68252 10.4956 2.12005 9.27916 2.01043 7.98349C1.9008 6.68783 2.25096 5.3949 3 4.32961L10.725 12.0184C9.65521 12.7653 8.35588 13.1147 7.05372 13.0056C5.75155 12.8964 4.52923 12.3357 3.6 11.4212Z" fill="#132968"/>
</svg>
