<svg width="16" height="16" viewBox="0 0 16 16" fill="none" xmlns="http://www.w3.org/2000/svg">
<mask id="path-1-inside-1" fill="white">
<path fill-rule="evenodd" clip-rule="evenodd" d="M11.3757 0.0943125L15.4519 4.32991C15.507 4.38725 15.5379 4.46372 15.5379 4.54328V14.7703C15.5379 15.4483 14.9847 16 14.3048 16H5.07862C4.39872 16 3.84556 15.448 3.84556 14.7696V12H1.38347C0.874781 12 0.460938 11.5863 0.460938 11.0778V6.46075C0.460938 5.95219 0.874781 5.53847 1.38347 5.53847H3.84556V1.23256C3.84556 0.552938 4.39872 0 5.07862 0H11.1539C11.2376 0 11.3176 0.0340625 11.3757 0.0943125ZM14.5764 4.30769L11.2302 0.830656V4.30769H14.5764ZM1.07634 11.0778C1.07634 11.247 1.21409 11.3846 1.38347 11.3846H9.69228C9.86162 11.3846 9.9994 11.247 9.9994 11.0778V6.46075C9.9994 6.29153 9.86165 6.15384 9.69228 6.15384H1.38347C1.21412 6.15384 1.07634 6.29153 1.07634 6.46075V11.0778ZM14.3048 15.3846C14.6454 15.3846 14.9225 15.109 14.9225 14.7703V4.92306H10.9225C10.7526 4.92306 10.6148 4.78531 10.6148 4.61538V0.615375H5.07862C4.73803 0.615375 4.46094 0.892219 4.46094 1.23256V5.53847H9.69228C10.201 5.53847 10.6148 5.95219 10.6148 6.46075V11.0778C10.6148 11.5863 10.201 12 9.69228 12H4.46094V14.7696C4.46094 15.1087 4.73803 15.3846 5.07862 15.3846H14.3048ZM3.75974 7.55071C3.91118 7.59036 4.03799 7.67661 4.14015 7.80942C4.24231 7.94224 4.2934 8.1138 4.29343 8.32414C4.29343 8.48639 4.26399 8.62283 4.20509 8.73339C4.14618 8.84395 4.07137 8.93079 3.98062 8.99389C3.88987 9.05701 3.79762 9.09876 3.70387 9.1192C3.57646 9.14445 3.39196 9.15707 3.15037 9.15707H2.8024V10.1541H2.26875V7.51105H3.12512C3.44965 7.51105 3.66118 7.52427 3.75974 7.55071ZM3.51634 8.6667C3.58728 8.63905 3.64287 8.5958 3.68312 8.53689C3.72337 8.47798 3.74353 8.40948 3.74349 8.33136C3.74349 8.23524 3.71524 8.15589 3.65874 8.09339C3.60228 8.03089 3.53074 7.99183 3.44421 7.9762C3.38053 7.96417 3.25253 7.95817 3.06021 7.95817H2.8024V8.70817H3.09446C3.30481 8.70817 3.4454 8.69436 3.51634 8.6667ZM6.85885 8.23311C6.80116 8.06424 6.717 7.92152 6.60644 7.80492C6.49588 7.68833 6.36303 7.60721 6.208 7.56152C6.09263 7.52786 5.92494 7.51105 5.705 7.51105H4.72963V10.1541H5.73385C5.93097 10.1541 6.08841 10.1354 6.20619 10.0982C6.36366 10.0477 6.48866 9.97738 6.58119 9.88723C6.70378 9.76823 6.79813 9.6126 6.86425 9.42029C6.91835 9.26282 6.94538 9.07533 6.94538 8.85779C6.94538 8.6102 6.91653 8.40198 6.85885 8.23311ZM6.3396 9.31845C6.30353 9.43686 6.25697 9.52189 6.19988 9.57354C6.14278 9.62523 6.07097 9.66189 5.98444 9.68351C5.91835 9.70035 5.81075 9.70876 5.66172 9.70876H5.26328V7.95817H5.50306C5.72059 7.95817 5.86666 7.96658 5.94116 7.98342C6.04091 8.00505 6.12325 8.04652 6.18816 8.10783C6.25306 8.16914 6.30353 8.25445 6.3396 8.36383C6.37566 8.4732 6.39369 8.63005 6.39369 8.83439C6.39369 9.0387 6.37566 9.20004 6.3396 9.31845ZM9.21339 7.51105V7.95817H7.93515V8.58377H9.03852V9.03089H7.93515V10.1541H7.40149V7.51105H9.21339Z"/>
</mask>
<path fill-rule="evenodd" clip-rule="evenodd" d="M11.3757 0.0943125L15.4519 4.32991C15.507 4.38725 15.5379 4.46372 15.5379 4.54328V14.7703C15.5379 15.4483 14.9847 16 14.3048 16H5.07862C4.39872 16 3.84556 15.448 3.84556 14.7696V12H1.38347C0.874781 12 0.460938 11.5863 0.460938 11.0778V6.46075C0.460938 5.95219 0.874781 5.53847 1.38347 5.53847H3.84556V1.23256C3.84556 0.552938 4.39872 0 5.07862 0H11.1539C11.2376 0 11.3176 0.0340625 11.3757 0.0943125ZM14.5764 4.30769L11.2302 0.830656V4.30769H14.5764ZM1.07634 11.0778C1.07634 11.247 1.21409 11.3846 1.38347 11.3846H9.69228C9.86162 11.3846 9.9994 11.247 9.9994 11.0778V6.46075C9.9994 6.29153 9.86165 6.15384 9.69228 6.15384H1.38347C1.21412 6.15384 1.07634 6.29153 1.07634 6.46075V11.0778ZM14.3048 15.3846C14.6454 15.3846 14.9225 15.109 14.9225 14.7703V4.92306H10.9225C10.7526 4.92306 10.6148 4.78531 10.6148 4.61538V0.615375H5.07862C4.73803 0.615375 4.46094 0.892219 4.46094 1.23256V5.53847H9.69228C10.201 5.53847 10.6148 5.95219 10.6148 6.46075V11.0778C10.6148 11.5863 10.201 12 9.69228 12H4.46094V14.7696C4.46094 15.1087 4.73803 15.3846 5.07862 15.3846H14.3048ZM3.75974 7.55071C3.91118 7.59036 4.03799 7.67661 4.14015 7.80942C4.24231 7.94224 4.2934 8.1138 4.29343 8.32414C4.29343 8.48639 4.26399 8.62283 4.20509 8.73339C4.14618 8.84395 4.07137 8.93079 3.98062 8.99389C3.88987 9.05701 3.79762 9.09876 3.70387 9.1192C3.57646 9.14445 3.39196 9.15707 3.15037 9.15707H2.8024V10.1541H2.26875V7.51105H3.12512C3.44965 7.51105 3.66118 7.52427 3.75974 7.55071ZM3.51634 8.6667C3.58728 8.63905 3.64287 8.5958 3.68312 8.53689C3.72337 8.47798 3.74353 8.40948 3.74349 8.33136C3.74349 8.23524 3.71524 8.15589 3.65874 8.09339C3.60228 8.03089 3.53074 7.99183 3.44421 7.9762C3.38053 7.96417 3.25253 7.95817 3.06021 7.95817H2.8024V8.70817H3.09446C3.30481 8.70817 3.4454 8.69436 3.51634 8.6667ZM6.85885 8.23311C6.80116 8.06424 6.717 7.92152 6.60644 7.80492C6.49588 7.68833 6.36303 7.60721 6.208 7.56152C6.09263 7.52786 5.92494 7.51105 5.705 7.51105H4.72963V10.1541H5.73385C5.93097 10.1541 6.08841 10.1354 6.20619 10.0982C6.36366 10.0477 6.48866 9.97738 6.58119 9.88723C6.70378 9.76823 6.79813 9.6126 6.86425 9.42029C6.91835 9.26282 6.94538 9.07533 6.94538 8.85779C6.94538 8.6102 6.91653 8.40198 6.85885 8.23311ZM6.3396 9.31845C6.30353 9.43686 6.25697 9.52189 6.19988 9.57354C6.14278 9.62523 6.07097 9.66189 5.98444 9.68351C5.91835 9.70035 5.81075 9.70876 5.66172 9.70876H5.26328V7.95817H5.50306C5.72059 7.95817 5.86666 7.96658 5.94116 7.98342C6.04091 8.00505 6.12325 8.04652 6.18816 8.10783C6.25306 8.16914 6.30353 8.25445 6.3396 8.36383C6.37566 8.4732 6.39369 8.63005 6.39369 8.83439C6.39369 9.0387 6.37566 9.20004 6.3396 9.31845ZM9.21339 7.51105V7.95817H7.93515V8.58377H9.03852V9.03089H7.93515V10.1541H7.40149V7.51105H9.21339Z" fill="#FA6B6B"/>
<path d="M15.4519 4.32991L16.1726 3.63668L16.1724 3.63649L15.4519 4.32991ZM11.3757 0.0943125L12.0962 -0.599108L12.0959 -0.599407L11.3757 0.0943125ZM3.84556 12H4.84556V11H3.84556V12ZM3.84556 5.53847V6.53847H4.84556V5.53847H3.84556ZM11.2302 0.830656L11.9507 0.137233L10.2302 -1.65056V0.830656H11.2302ZM14.5764 4.30769V5.30769H16.9266L15.2969 3.61426L14.5764 4.30769ZM11.2302 4.30769H10.2302V5.30769H11.2302V4.30769ZM14.9225 4.92306H15.9225V3.92306H14.9225V4.92306ZM10.6148 0.615375H11.6148V-0.384625H10.6148V0.615375ZM4.46094 5.53847H3.46094V6.53847H4.46094V5.53847ZM4.46094 12V11H3.46094V12H4.46094ZM4.14015 7.80942L4.93279 7.19974L4.93279 7.19974L4.14015 7.80942ZM3.75974 7.55071L3.50066 8.51658L3.50642 8.51809L3.75974 7.55071ZM4.29343 8.32414L5.29343 8.32414L5.29343 8.32399L4.29343 8.32414ZM4.20509 8.73339L3.32254 8.26317L3.32253 8.26318L4.20509 8.73339ZM3.98062 8.99389L3.40978 8.17282L3.40959 8.17296L3.98062 8.99389ZM3.70387 9.1192L3.89828 10.1001L3.90759 10.0983L3.91686 10.0963L3.70387 9.1192ZM2.8024 9.15707V8.15707H1.8024V9.15707H2.8024ZM2.8024 10.1541V11.1541H3.8024V10.1541H2.8024ZM2.26875 10.1541H1.26875V11.1541H2.26875V10.1541ZM2.26875 7.51105V6.51105H1.26875V7.51105H2.26875ZM3.68312 8.53689L2.85746 7.97272L2.85746 7.97272L3.68312 8.53689ZM3.51634 8.6667L3.87957 9.5984L3.87958 9.5984L3.51634 8.6667ZM3.74349 8.33136L2.74349 8.33136L2.74349 8.33176L3.74349 8.33136ZM3.65874 8.09339L2.91674 8.76379L2.91693 8.76399L3.65874 8.09339ZM3.44421 7.9762L3.25858 8.95886L3.26652 8.96029L3.44421 7.9762ZM2.8024 7.95817V6.95817H1.8024V7.95817H2.8024ZM2.8024 8.70817H1.8024V9.70817H2.8024V8.70817ZM6.60644 7.80492L7.33206 7.11683L7.33206 7.11683L6.60644 7.80492ZM6.85885 8.23311L7.80516 7.90985L7.80516 7.90985L6.85885 8.23311ZM6.208 7.56152L6.49068 6.6023L6.48804 6.60153L6.208 7.56152ZM4.72963 7.51105V6.51105H3.72963V7.51105H4.72963ZM4.72963 10.1541H3.72963V11.1541H4.72963V10.1541ZM6.20619 10.0982L6.50796 11.0516L6.5114 11.0505L6.20619 10.0982ZM6.58119 9.88723L5.88468 9.16968L5.88333 9.17099L6.58119 9.88723ZM6.86425 9.42029L7.80991 9.74545L7.81 9.74518L6.86425 9.42029ZM6.19988 9.57354L5.52897 8.832L5.52874 8.8322L6.19988 9.57354ZM6.3396 9.31845L7.29621 9.60981L7.29621 9.6098L6.3396 9.31845ZM5.98444 9.68351L5.74199 8.71333L5.73748 8.71448L5.98444 9.68351ZM5.26328 9.70876H4.26328V10.7088H5.26328V9.70876ZM5.26328 7.95817V6.95817H4.26328V7.95817H5.26328ZM5.94116 7.98342L5.72062 8.95884L5.72929 8.96072L5.94116 7.98342ZM6.18816 8.10783L5.50146 8.83478L5.50147 8.83478L6.18816 8.10783ZM6.3396 8.36383L7.28931 8.0507L7.2893 8.05069L6.3396 8.36383ZM9.21339 7.95817V8.95817H10.2134V7.95817H9.21339ZM9.21339 7.51105H10.2134V6.51105H9.21339V7.51105ZM7.93515 7.95817V6.95817H6.93515V7.95817H7.93515ZM7.93515 8.58377H6.93515V9.58377H7.93515V8.58377ZM9.03852 8.58377H10.0385V7.58377H9.03852V8.58377ZM9.03852 9.03089V10.0309H10.0385V9.03089H9.03852ZM7.93515 9.03089V8.03089H6.93515V9.03089H7.93515ZM7.93515 10.1541V11.1541H8.93515V10.1541H7.93515ZM7.40149 10.1541H6.40149V11.1541H7.40149V10.1541ZM7.40149 7.51105V6.51105H6.40149V7.51105H7.40149ZM16.1724 3.63649L12.0962 -0.599108L10.6551 0.787733L14.7313 5.02333L16.1724 3.63649ZM16.5379 4.54328C16.5379 4.20491 16.4067 3.88009 16.1726 3.63668L14.7311 5.02313C14.6073 4.89441 14.5379 4.72252 14.5379 4.54328H16.5379ZM16.5379 14.7703V4.54328H14.5379V14.7703H16.5379ZM14.3048 17C15.5344 17 16.5379 16.0032 16.5379 14.7703H14.5379C14.5379 14.8935 14.435 15 14.3048 15V17ZM5.07862 17H14.3048V15H5.07862V17ZM2.84556 14.7696C2.84556 16.0023 3.84847 17 5.07862 17V15C4.94897 15 4.84556 14.8937 4.84556 14.7696H2.84556ZM2.84556 12V14.7696H4.84556V12H2.84556ZM1.38347 13H3.84556V11H1.38347V13ZM-0.539062 11.0778C-0.539062 12.1389 0.322783 13 1.38347 13V11C1.42678 11 1.46094 11.0337 1.46094 11.0778H-0.539062ZM-0.539062 6.46075V11.0778H1.46094V6.46075H-0.539062ZM1.38347 4.53847C0.322761 4.53847 -0.539062 5.39964 -0.539062 6.46075H1.46094C1.46094 6.50474 1.4268 6.53847 1.38347 6.53847V4.53847ZM3.84556 4.53847H1.38347V6.53847H3.84556V4.53847ZM2.84556 1.23256V5.53847H4.84556V1.23256H2.84556ZM5.07862 -1C3.84681 -1 2.84556 0.000273646 2.84556 1.23256H4.84556C4.84556 1.1056 4.95062 1 5.07862 1V-1ZM11.1539 -1H5.07862V1H11.1539V-1ZM12.0959 -0.599407C11.8495 -0.855235 11.5095 -1 11.1539 -1V1C10.9657 1 10.7858 0.92336 10.6554 0.788032L12.0959 -0.599407ZM10.5097 1.52408L13.8559 5.00111L15.2969 3.61426L11.9507 0.137233L10.5097 1.52408ZM12.2302 4.30769V0.830656H10.2302V4.30769H12.2302ZM14.5764 3.30769H11.2302V5.30769H14.5764V3.30769ZM1.38347 10.3846C1.76565 10.3846 2.07634 10.694 2.07634 11.0778H0.0763435C0.0763435 11.8 0.662537 12.3846 1.38347 12.3846V10.3846ZM9.69228 10.3846H1.38347V12.3846H9.69228V10.3846ZM8.9994 11.0778C8.9994 10.6939 9.31013 10.3846 9.69228 10.3846V12.3846C10.4131 12.3846 10.9994 11.8 10.9994 11.0778H8.9994ZM8.9994 6.46075V11.0778H10.9994V6.46075H8.9994ZM9.69228 7.15384C9.30996 7.15384 8.9994 6.84441 8.9994 6.46075H10.9994C10.9994 5.73865 10.4133 5.15384 9.69228 5.15384V7.15384ZM1.38347 7.15384H9.69228V5.15384H1.38347V7.15384ZM2.07634 6.46075C2.07634 6.84448 1.76575 7.15384 1.38347 7.15384V5.15384C0.662502 5.15384 0.0763435 5.73859 0.0763435 6.46075H2.07634ZM2.07634 11.0778V6.46075H0.0763435V11.0778H2.07634ZM13.9225 14.7703C13.9225 14.5516 14.0982 14.3846 14.3048 14.3846V16.3846C15.1925 16.3846 15.9225 15.6664 15.9225 14.7703H13.9225ZM13.9225 4.92306V14.7703H15.9225V4.92306H13.9225ZM10.9225 5.92306H14.9225V3.92306H10.9225V5.92306ZM9.61478 4.61538C9.61478 5.33767 10.2003 5.92306 10.9225 5.92306V3.92306C11.3048 3.92306 11.6148 4.23296 11.6148 4.61538H9.61478ZM9.61478 0.615375V4.61538H11.6148V0.615375H9.61478ZM5.07862 1.61537H10.6148V-0.384625H5.07862V1.61537ZM5.46094 1.23256C5.46094 1.44529 5.28952 1.61537 5.07862 1.61537V-0.384625C4.18654 -0.384625 3.46094 0.339143 3.46094 1.23256H5.46094ZM5.46094 5.53847V1.23256H3.46094V5.53847H5.46094ZM9.69228 4.53847H4.46094V6.53847H9.69228V4.53847ZM11.6148 6.46075C11.6148 5.39964 10.753 4.53847 9.69228 4.53847V6.53847C9.64894 6.53847 9.61481 6.50474 9.61481 6.46075H11.6148ZM11.6148 11.0778V6.46075H9.61481V11.0778H11.6148ZM9.69228 13C10.753 13 11.6148 12.1389 11.6148 11.0778H9.61481C9.61481 11.0337 9.64897 11 9.69228 11V13ZM4.46094 13H9.69228V11H4.46094V13ZM5.46094 14.7696V12H3.46094V14.7696H5.46094ZM5.07862 14.3846C5.28619 14.3846 5.46094 14.5523 5.46094 14.7696H3.46094C3.46094 15.6652 4.18987 16.3846 5.07862 16.3846V14.3846ZM14.3048 14.3846H5.07862V16.3846H14.3048V14.3846ZM4.93279 7.19974C4.70564 6.90443 4.39454 6.68322 4.01306 6.58332L3.50642 8.51809C3.47419 8.50965 3.43887 8.49434 3.40605 8.47201C3.37391 8.45015 3.3552 8.42911 3.34751 8.41911L4.93279 7.19974ZM5.29343 8.32399C5.29337 7.95039 5.20053 7.54782 4.93279 7.19974L3.3475 8.41911C3.31897 8.38201 3.30367 8.34658 3.29668 8.32312C3.29033 8.3018 3.29343 8.29929 3.29343 8.32429L5.29343 8.32399ZM5.08764 9.20361C5.24312 8.91179 5.29343 8.60331 5.29343 8.32414H3.29343C3.29343 8.36947 3.28487 8.33387 3.32254 8.26317L5.08764 9.20361ZM4.55146 9.81495C4.78904 9.64977 4.96424 9.43522 5.08764 9.2036L3.32253 8.26318C3.32812 8.25269 3.35369 8.21182 3.40978 8.17282L4.55146 9.81495ZM3.91686 10.0963C4.15692 10.0439 4.36907 9.94182 4.55165 9.81482L3.40959 8.17296C3.41067 8.17221 3.43832 8.1536 3.49087 8.14215L3.91686 10.0963ZM3.15037 10.1571C3.41177 10.1571 3.6739 10.1446 3.89828 10.1001L3.50946 8.13828C3.47902 8.14431 3.37216 8.15707 3.15037 8.15707V10.1571ZM2.8024 10.1571H3.15037V8.15707H2.8024V10.1571ZM3.8024 10.1541V9.15707H1.8024V10.1541H3.8024ZM2.26875 11.1541H2.8024V9.15407H2.26875V11.1541ZM1.26875 7.51105V10.1541H3.26875V7.51105H1.26875ZM3.12512 6.51105H2.26875V8.51105H3.12512V6.51105ZM4.01882 6.58485C3.76989 6.51808 3.42089 6.51105 3.12512 6.51105V8.51105C3.27624 8.51105 3.3876 8.51419 3.4648 8.51902C3.50314 8.52141 3.52644 8.52383 3.53779 8.52528C3.55272 8.52719 3.53585 8.526 3.50067 8.51656L4.01882 6.58485ZM2.85746 7.97272C2.93874 7.85377 3.04992 7.77523 3.1531 7.73501L3.87958 9.5984C4.12464 9.50286 4.347 9.33782 4.50878 9.10106L2.85746 7.97272ZM2.74349 8.33176C2.74345 8.22795 2.77352 8.09557 2.85746 7.97272L4.50878 9.10106C4.67322 8.8604 4.7436 8.59102 4.74349 8.33096L2.74349 8.33176ZM2.91693 8.76399C2.85709 8.6978 2.81023 8.6194 2.78026 8.53525C2.75102 8.45314 2.74349 8.38165 2.74349 8.33136H4.74349C4.74349 8.02491 4.64676 7.69514 4.40056 7.42279L2.91693 8.76399ZM3.26652 8.96029C3.21253 8.95054 3.14901 8.93068 3.08339 8.89484C3.01732 8.85875 2.96126 8.81306 2.91674 8.76379L4.40075 7.42299C4.1891 7.18874 3.91565 7.04516 3.62191 6.99212L3.26652 8.96029ZM3.06021 8.95817C3.14765 8.95817 3.21083 8.95957 3.25356 8.96158C3.2747 8.96257 3.28644 8.96351 3.29072 8.96392C3.29709 8.96451 3.28385 8.9636 3.25859 8.95883L3.62984 6.99358C3.45901 6.96131 3.23719 6.95817 3.06021 6.95817V8.95817ZM2.8024 8.95817H3.06021V6.95817H2.8024V8.95817ZM3.8024 8.70817V7.95817H1.8024V8.70817H3.8024ZM3.09446 7.70817H2.8024V9.70817H3.09446V7.70817ZM3.15311 7.735C3.1824 7.72358 3.2063 7.71633 3.22235 7.71194C3.2387 7.70746 3.25088 7.70486 3.25769 7.70353C3.2704 7.70104 3.27243 7.70137 3.25987 7.7026C3.24815 7.70375 3.22861 7.70522 3.19981 7.70635C3.1713 7.70748 3.13641 7.70817 3.09446 7.70817V9.70817C3.21817 9.70817 3.34113 9.70425 3.45549 9.69301C3.55323 9.68341 3.71497 9.66257 3.87957 9.5984L3.15311 7.735ZM5.88081 8.49301C5.88208 8.49435 5.8962 8.50854 5.91254 8.55637L7.80516 7.90985C7.70612 7.61993 7.55193 7.34869 7.33206 7.11683L5.88081 8.49301ZM5.92532 8.52073C5.92229 8.51984 5.91362 8.51674 5.90261 8.51002C5.89157 8.50327 5.88414 8.49652 5.88082 8.49302L7.33206 7.11683C7.09944 6.87153 6.81346 6.69743 6.49068 6.6023L5.92532 8.52073ZM5.705 8.51105C5.79108 8.51105 5.85346 8.51441 5.8959 8.51867C5.94102 8.5232 5.94734 8.52716 5.92796 8.52151L6.48804 6.60153C6.23544 6.52784 5.95496 6.51105 5.705 6.51105V8.51105ZM4.72963 8.51105H5.705V6.51105H4.72963V8.51105ZM5.72963 10.1541V7.51105H3.72963V10.1541H5.72963ZM5.73385 9.15407H4.72963V11.1541H5.73385V9.15407ZM5.90442 9.14478C5.91963 9.13997 5.91505 9.14315 5.88225 9.14703C5.85056 9.15078 5.80215 9.15407 5.73385 9.15407V11.1541C5.98 11.1541 6.25218 11.1325 6.50796 11.0515L5.90442 9.14478ZM5.88333 9.17099C5.90563 9.14926 5.92284 9.13878 5.92778 9.136C5.93221 9.13351 5.925 9.13818 5.90098 9.14588L6.5114 11.0505C6.77626 10.9656 7.04906 10.8275 7.27905 10.6035L5.88333 9.17099ZM5.91859 9.09513C5.8939 9.16696 5.87504 9.17904 5.88468 9.16968L7.2777 10.6048C7.53253 10.3574 7.70236 10.0582 7.80991 9.74545L5.91859 9.09513ZM5.94538 8.85779C5.94538 8.99682 5.92757 9.06901 5.9185 9.0954L7.81 9.74518C7.90913 9.45664 7.94538 9.15383 7.94538 8.85779H5.94538ZM5.91254 8.55637C5.92386 8.58952 5.94538 8.68081 5.94538 8.85779H7.94538C7.94538 8.53959 7.90921 8.21445 7.80516 7.90985L5.91254 8.55637ZM6.87079 10.3151C7.12046 10.0892 7.23639 9.80622 7.29621 9.60981L5.38298 9.02709C5.37972 9.0378 5.38333 9.02211 5.40055 8.99066C5.41762 8.95951 5.45638 8.89767 5.52897 8.832L6.87079 10.3151ZM6.22689 10.6537C6.4476 10.5985 6.674 10.4932 6.87101 10.3149L5.52874 8.8322C5.61157 8.75723 5.69435 8.72525 5.74199 8.71335L6.22689 10.6537ZM5.66172 10.7088C5.8196 10.7088 6.03511 10.7026 6.23139 10.6525L5.73748 8.71448C5.76294 8.708 5.77949 8.70551 5.78319 8.70497C5.78766 8.70432 5.78584 8.70474 5.7762 8.7055C5.75602 8.70707 5.71925 8.70876 5.66172 8.70876V10.7088ZM5.26328 10.7088H5.66172V8.70876H5.26328V10.7088ZM4.26328 7.95817V9.70876H6.26328V7.95817H4.26328ZM5.50306 6.95817H5.26328V8.95817H5.50306V6.95817ZM6.16168 7.00804C5.96153 6.96279 5.7056 6.95817 5.50306 6.95817V8.95817C5.60092 8.95817 5.67115 8.96011 5.71823 8.96283C5.74147 8.96417 5.75402 8.96541 5.75811 8.96588C5.76431 8.96659 5.74909 8.96524 5.72063 8.95881L6.16168 7.00804ZM6.87485 7.38088C6.65931 7.17727 6.40484 7.06072 6.15303 7.00613L5.72929 8.96072C5.67697 8.94938 5.58719 8.91576 5.50146 8.83478L6.87485 7.38088ZM7.2893 8.05069C7.21591 7.82811 7.09037 7.58446 6.87485 7.38088L5.50147 8.83478C5.41576 8.75382 5.39115 8.6808 5.38989 8.67696L7.2893 8.05069ZM7.39369 8.83439C7.39369 8.59256 7.37497 8.31052 7.28931 8.0507L5.38989 8.67696C5.38041 8.64821 5.38282 8.64391 5.38671 8.6777C5.39032 8.70909 5.39369 8.75994 5.39369 8.83439H7.39369ZM7.29621 9.6098C7.37362 9.35563 7.39369 9.08215 7.39369 8.83439H5.39369C5.39369 8.90844 5.39036 8.96175 5.38635 8.99757C5.38219 9.03484 5.37856 9.04161 5.38298 9.0271L7.29621 9.6098ZM10.2134 7.95817V7.51105H8.21339V7.95817H10.2134ZM7.93515 8.95817H9.21339V6.95817H7.93515V8.95817ZM8.93515 8.58377V7.95817H6.93515V8.58377H8.93515ZM9.03852 7.58377H7.93515V9.58377H9.03852V7.58377ZM10.0385 9.03089V8.58377H8.03852V9.03089H10.0385ZM7.93515 10.0309H9.03852V8.03089H7.93515V10.0309ZM8.93515 10.1541V9.03089H6.93515V10.1541H8.93515ZM7.40149 11.1541H7.93515V9.15407H7.40149V11.1541ZM6.40149 7.51105V10.1541H8.40149V7.51105H6.40149ZM9.21339 6.51105H7.40149V8.51105H9.21339V6.51105Z" fill="#FA6B6B" mask="url(#path-1-inside-1)"/>
</svg>
