<svg width="13" height="15" viewBox="0 0 13 15" fill="none" xmlns="http://www.w3.org/2000/svg">
<path d="M8.83013 1.10236C8.68885 1.24049 8.61821 1.37863 8.47693 1.44769C7.98244 2.00023 7.41731 2.55276 6.92282 3.17436L5.79257 2.06929C5.58064 1.86209 5.43936 1.86209 5.29808 2.06929C4.94487 2.48369 4.52103 2.89809 4.16782 3.3125C3.72329 3.76731 3.34315 4.27835 3.03757 4.83196C2.60247 5.59996 2.39208 6.47027 2.42947 7.34746C2.46685 8.22464 2.75056 9.07482 3.24949 9.80477C3.16223 9.88347 3.09041 9.9771 3.03757 10.081L0.494487 12.7746C0.219821 13.0589 0.0463853 13.4222 0 13.8106C0.014919 13.9046 0.0385638 13.9971 0.0706412 14.0869C0.117235 14.2652 0.214415 14.427 0.350983 14.5537C0.487551 14.6804 0.657946 14.7667 0.84253 14.8028C1.02711 14.8389 1.21837 14.8233 1.39426 14.7577C1.57015 14.6921 1.72351 14.5793 1.83667 14.4322C2.02108 14.2657 2.18684 14.0805 2.33115 13.8797C3.10821 13.0509 3.88526 12.153 4.66231 11.3933C4.69016 11.4195 4.72364 11.4393 4.7603 11.4512C4.79696 11.4632 4.83588 11.467 4.87423 11.4624C5.76445 11.9963 6.82393 12.1927 7.85227 12.0146C8.88062 11.8364 9.80653 11.2959 10.4549 10.4954C10.9494 9.9429 11.5145 9.39037 12.009 8.76877C12.2209 8.4925 12.2209 8.42343 12.009 8.21623L10.8787 7.11117L11.1613 6.8349C11.6558 6.28236 12.2915 5.66076 12.786 5.03916C12.8934 4.9317 12.9645 4.79464 12.9898 4.64645C13.015 4.49826 12.9932 4.34607 12.9273 4.21036C12.885 4.08531 12.7961 3.98038 12.6783 3.91641C12.5606 3.85243 12.4225 3.8341 12.2915 3.86503C12.1005 3.93923 11.9308 4.05775 11.7971 4.21036C11.2319 4.83196 10.6668 5.45356 10.031 6.07516C9.39526 5.3845 8.68885 4.7629 8.05308 4.1413C8.12372 4.07223 8.12372 4.00316 8.19436 4.00316C8.75949 3.38156 9.32462 2.75996 9.96039 2.13836C10.0308 2.07543 10.0857 1.99774 10.121 1.91112C10.1563 1.8245 10.1711 1.7312 10.1643 1.63819C10.1575 1.54517 10.1293 1.45487 10.0817 1.37404C10.0342 1.29321 9.96856 1.22394 9.88975 1.17143C9.83679 1.11101 9.77202 1.06155 9.69923 1.02597C9.62644 0.990384 9.54711 0.969392 9.4659 0.964226C9.41555 0.930391 9.35861 0.907054 9.29863 0.89567C9.23866 0.884286 9.17692 0.885098 9.11728 0.898057C9.05764 0.911015 9.00136 0.935842 8.95196 0.970991C8.90256 1.00614 8.86109 1.05086 8.83013 1.10236Z" fill="#132968"/>
</svg>
