<svg width="18" height="14" viewBox="0 0 18 14" fill="none" xmlns="http://www.w3.org/2000/svg">
<path d="M16.396 0.00386479H1.5149C1.31547 0.00208142 1.11769 0.0400462 0.933093 0.115543C0.748499 0.191039 0.580795 0.302554 0.439772 0.443577C0.298749 0.584599 0.187234 0.752304 0.111738 0.936898C0.0362415 1.12149 -0.00172333 1.31928 6.00355e-05 1.51871V2.05336H17.8217V1.51871C17.8489 1.32108 17.8315 1.11988 17.7708 0.92986C17.7101 0.739838 17.6076 0.565814 17.4709 0.42055C17.3342 0.275286 17.1667 0.162466 16.9807 0.0903637C16.7947 0.0182618 16.5949 -0.0112937 16.396 0.00386479ZM0.0891684 12.3899C0.087385 12.5893 0.12535 12.7871 0.200846 12.9717C0.276342 13.1563 0.387858 13.324 0.52888 13.465C0.669903 13.6061 0.837607 13.7176 1.0222 13.7931C1.2068 13.8686 1.40458 13.9065 1.60401 13.9048H16.4851C16.6845 13.9065 16.8823 13.8686 17.0669 13.7931C17.2515 13.7176 17.4192 13.6061 17.5602 13.465C17.7013 13.324 17.8128 13.1563 17.8883 12.9717C17.9638 12.7871 18.0017 12.5893 17.9999 12.3899V2.94444H0.178277L0.0891684 12.3899ZM10.9604 5.17215C10.9552 5.13583 10.9585 5.09879 10.9701 5.06398C10.9817 5.02916 11.0012 4.99753 11.0271 4.97158C11.0531 4.94564 11.0847 4.9261 11.1195 4.91451C11.1544 4.90292 11.1914 4.8996 11.2277 4.90482H15.6831C15.7194 4.8996 15.7565 4.90292 15.7913 4.91451C15.8261 4.9261 15.8577 4.94564 15.8837 4.97158C15.9096 4.99753 15.9292 5.02916 15.9408 5.06398C15.9524 5.09879 15.9557 5.13583 15.9504 5.17215V5.7068C15.9557 5.74312 15.9524 5.78015 15.9408 5.81497C15.9292 5.84978 15.9096 5.88141 15.8837 5.90736C15.8577 5.93331 15.8261 5.95285 15.7913 5.96444C15.7565 5.97603 15.7194 5.97934 15.6831 5.97412H11.2277C11.1914 5.97934 11.1544 5.97603 11.1195 5.96444C11.0847 5.95285 11.0531 5.93331 11.0271 5.90736C11.0012 5.88141 10.9817 5.84978 10.9701 5.81497C10.9585 5.78015 10.9552 5.74312 10.9604 5.7068V5.17215ZM10.9604 7.22164C10.9552 7.18532 10.9585 7.14828 10.9701 7.11347C10.9817 7.07865 11.0012 7.04702 11.0271 7.02107C11.0531 6.99513 11.0847 6.97559 11.1195 6.964C11.1544 6.95241 11.1914 6.94909 11.2277 6.95431H15.6831C15.7194 6.94909 15.7565 6.95241 15.7913 6.964C15.8261 6.97559 15.8577 6.99513 15.8837 7.02107C15.9096 7.04702 15.9292 7.07865 15.9408 7.11347C15.9524 7.14828 15.9557 7.18532 15.9504 7.22164V7.75629C15.9557 7.79261 15.9524 7.82964 15.9408 7.86446C15.9292 7.89927 15.9096 7.93091 15.8837 7.95685C15.8577 7.9828 15.8261 8.00234 15.7913 8.01393C15.7565 8.02552 15.7194 8.02883 15.6831 8.02361H11.2277C11.1914 8.02883 11.1544 8.02552 11.1195 8.01393C11.0847 8.00234 11.0531 7.9828 11.0271 7.95685C11.0012 7.93091 10.9817 7.89927 10.9701 7.86446C10.9585 7.82964 10.9552 7.79261 10.9604 7.75629V7.22164ZM10.9604 9.18202C10.9552 9.1457 10.9585 9.10867 10.9701 9.07385C10.9817 9.03904 11.0012 9.0074 11.0271 8.98146C11.0531 8.95551 11.0847 8.93597 11.1195 8.92438C11.1544 8.91279 11.1914 8.90948 11.2277 8.9147H15.6831C15.7194 8.90948 15.7565 8.91279 15.7913 8.92438C15.8261 8.93597 15.8577 8.95551 15.8837 8.98146C15.9096 9.0074 15.9292 9.03904 15.9408 9.07385C15.9524 9.10867 15.9557 9.1457 15.9504 9.18202V9.71667C15.9557 9.75299 15.9524 9.79003 15.9408 9.82484C15.9292 9.85965 15.9096 9.89129 15.8837 9.91723C15.8577 9.94318 15.8261 9.96272 15.7913 9.97431C15.7565 9.9859 15.7194 9.98921 15.6831 9.984H11.2277C11.1914 9.98921 11.1544 9.9859 11.1195 9.97431C11.0847 9.96272 11.0531 9.94318 11.0271 9.91723C11.0012 9.89129 10.9817 9.85965 10.9701 9.82484C10.9585 9.79003 10.9552 9.75299 10.9604 9.71667V9.18202ZM5.52478 4.99393C5.9125 4.99393 6.29152 5.1089 6.61391 5.32431C6.93629 5.53972 7.18756 5.84589 7.33593 6.20411C7.48431 6.56232 7.52313 6.95649 7.44749 7.33676C7.37185 7.71704 7.18514 8.06635 6.91098 8.34051C6.63681 8.61468 6.2875 8.80139 5.90723 8.87703C5.52695 8.95267 5.13278 8.91385 4.77457 8.76547C4.41636 8.61709 4.11019 8.36583 3.89478 8.04344C3.67937 7.72106 3.56439 7.34204 3.56439 6.95431C3.56904 6.43583 3.77708 5.93989 4.14372 5.57325C4.51036 5.20661 5.00629 4.99858 5.52478 4.99393ZM2.13866 11.2315C2.26542 10.8371 2.51592 10.4941 2.85299 10.2534C3.19007 10.0126 3.59578 9.8869 4.00993 9.89489H4.27726C4.66751 10.0773 5.09407 10.1687 5.52478 10.1622C5.95549 10.1687 6.38204 10.0773 6.77229 9.89489H7.03962C7.45378 9.8869 7.85948 10.0126 8.19656 10.2534C8.53364 10.4941 8.78413 10.8371 8.91089 11.2315C8.92533 11.302 8.92508 11.3747 8.91014 11.4451C8.89521 11.5154 8.86592 11.582 8.82411 11.6405C8.78229 11.6991 8.72885 11.7484 8.66712 11.7853C8.60539 11.8223 8.5367 11.8461 8.46535 11.8553H2.67331C2.59309 11.8631 2.51217 11.8515 2.4374 11.8214C2.36263 11.7913 2.29621 11.7436 2.24376 11.6824C2.19131 11.6213 2.15437 11.5483 2.13608 11.4698C2.11778 11.3913 2.11867 11.3096 2.13866 11.2315Z" fill="#132968"/>
</svg>
