<svg width="16px" height="16px" xmlns="http://www.w3.org/2000/svg" xmlns:xlink="http://www.w3.org/1999/xlink">
<path d="M8,13.6c-0.1,0-0.3,0-0.4,0.1L4,15.6c-0.6,0.3-1.4-0.2-1.3-0.9l0.7-4c0-0.3,0-0.6-0.2-0.8L0.3,7
	C-0.3,6.5,0,5.6,0.7,5.5l4-0.6c0.3,0,0.5-0.2,0.6-0.5l1.8-3.7C7.3,0.7,7.7,0.6,8,0.6C8,4.2,8,9.4,8,13.6z" fill="#FFD53E"/>
<path d="M8,13.6c0.1,0,0.3,0,0.4,0.1l3.6,1.9c0.6,0.3,1.4-0.2,1.3-0.9l-0.7-4c0-0.3,0-0.6,0.2-0.8L15.7,7
	c0.5-0.5,0.2-1.4-0.5-1.5l-4-0.6c-0.3,0-0.5-0.2-0.6-0.5L8.8,0.8C8.7,0.7,8.3,0.6,8,0.6C8,4.2,8,9.4,8,13.6z" fill="#E3E3E3"/>
</svg>
