<svg width="16" height="16" viewBox="0 0 16 16" fill="none" xmlns="http://www.w3.org/2000/svg">
<path d="M8.77243 0.82996L10.577 4.48653C10.7025 4.74085 10.9451 4.91707 11.2258 4.95779L15.2612 5.54419C15.9681 5.64698 16.2501 6.5154 15.7388 7.01369L12.8188 9.85991C12.6159 10.0578 12.5231 10.3432 12.5712 10.6225L13.2604 14.6416C13.3812 15.3454 12.6423 15.8821 12.0101 15.55L8.40097 13.6527C8.14999 13.5208 7.84994 13.5208 7.59896 13.6527L3.98978 15.55C3.35766 15.8824 2.61874 15.3454 2.73955 14.6416L3.42875 10.6225C3.47681 10.3432 3.38403 10.0578 3.18111 9.85991L0.261123 7.01369C-0.250182 6.51507 0.0318367 5.64665 0.73872 5.54419L4.7741 4.95779C5.05478 4.91707 5.29742 4.74085 5.42291 4.48653L7.2275 0.82996C7.54323 0.189493 8.45637 0.189493 8.77243 0.82996Z" fill="#FFD53E"/>
</svg>
