<svg width="15" height="14" viewBox="0 0 15 14" fill="none" xmlns="http://www.w3.org/2000/svg">
<path d="M2.77485 13.6243H12.1494V3.47913H11.2494V2.08234C11.2495 1.89888 11.2127 1.71721 11.1411 1.5477C11.0696 1.37819 10.9646 1.22417 10.8323 1.09444C10.6999 0.964719 10.5428 0.861836 10.3699 0.791675C10.197 0.721514 10.0116 0.68545 9.82449 0.685547H5.17473C4.98758 0.68545 4.80224 0.721514 4.62932 0.791675C4.45639 0.861836 4.29927 0.964719 4.16693 1.09444C4.0346 1.22417 3.92964 1.37819 3.85807 1.5477C3.78649 1.71721 3.74971 1.89888 3.7498 2.08234V3.47913H2.84985V13.6243H2.77485ZM5.62471 2.59695H9.37451V3.47913H5.62471V2.59695ZM14.9992 4.87593V12.2275C14.9993 12.4109 14.9625 12.5926 14.8909 12.7621C14.8194 12.9316 14.7144 13.0856 14.5821 13.2154C14.4497 13.3451 14.2926 13.448 14.1197 13.5181C13.9468 13.5883 13.7614 13.6244 13.5743 13.6243H13.1243V3.47913H13.5743C13.7631 3.47289 13.9513 3.50474 14.127 3.57272C14.3028 3.64071 14.4624 3.74337 14.596 3.87434C14.7297 4.00531 14.8344 4.1618 14.9037 4.33409C14.9731 4.50639 15.0056 4.69081 14.9992 4.87593ZM1.8749 13.6243H1.42493C1.23777 13.6244 1.05244 13.5883 0.879514 13.5181C0.706589 13.448 0.549467 13.3451 0.417131 13.2154C0.284795 13.0856 0.17984 12.9316 0.108265 12.7621C0.0366912 12.5926 -9.83811e-05 12.4109 1.97584e-07 12.2275V4.87593C-9.83811e-05 4.69247 0.0366912 4.51079 0.108265 4.34128C0.17984 4.17177 0.284795 4.01775 0.417131 3.88803C0.549467 3.75831 0.706589 3.65542 0.879514 3.58526C1.05244 3.5151 1.23777 3.47904 1.42493 3.47913H1.8749V13.6243Z" fill="#132968"/>
</svg>
