<svg width="15" height="14" fill="none" xmlns="http://www.w3.org/2000/svg"><path d="M2.775 13.624h9.374V3.48h-.9V2.082a1.372 1.372 0 0 0-.417-.988A1.427 1.427 0 0 0 9.824.686h-4.65a1.45 1.45 0 0 0-1.007.408 1.395 1.395 0 0 0-.417.988V3.48h-.9v10.145h-.075zm2.85-11.027h3.75v.882h-3.75v-.882zm9.374 2.279v7.351a1.372 1.372 0 0 1-.417.988 1.427 1.427 0 0 1-1.008.41h-.45V3.478h.45a1.404 1.404 0 0 1 1.022.395 1.348 1.348 0 0 1 .403 1.002zM1.875 13.624h-.45a1.448 1.448 0 0 1-1.008-.409A1.396 1.396 0 0 1 0 12.227V4.876a1.372 1.372 0 0 1 .417-.988 1.426 1.426 0 0 1 1.008-.409h.45v10.145z" fill="#132968"/></svg>
