<svg width="18" height="18" viewBox="0 0 18 18" fill="none" xmlns="http://www.w3.org/2000/svg">
<path d="M10.3497 4.23093L13.7691 7.65026L7.65026 13.7691L4.23093 10.3497L10.3497 4.23093ZM8.10017 14.6689L14.6689 8.10017C14.7349 8.0469 14.7862 7.97754 14.8177 7.89875C14.8492 7.81996 14.86 7.73439 14.8489 7.65026C14.8455 7.48342 14.7815 7.32351 14.6689 7.20035L10.7996 3.3311C10.6783 3.21558 10.5173 3.15114 10.3497 3.15114C10.1822 3.15114 10.0211 3.21558 9.89983 3.3311L3.3311 9.89983C3.26505 9.9531 3.21381 10.0225 3.18229 10.1012C3.15078 10.18 3.14005 10.2656 3.15114 10.3497C3.15453 10.5166 3.2185 10.6765 3.3311 10.7996L7.20035 14.6689C7.32351 14.7815 7.48342 14.8455 7.65026 14.8489C7.69132 14.8686 7.73605 14.8797 7.7816 14.8812C7.82715 14.8828 7.87253 14.8749 7.91485 14.8579C7.95716 14.841 7.99549 14.8155 8.0274 14.7829C8.05931 14.7504 8.08409 14.7115 8.10017 14.6689ZM17.6383 7.92021L7.92021 17.6383C7.78766 17.7614 7.63177 17.8567 7.46176 17.9185C7.29175 17.9803 7.11107 18.0075 6.9304 17.9982C6.74974 18.0075 6.56906 17.9803 6.39905 17.9185C6.22904 17.8567 6.07315 17.7614 5.9406 17.6383L4.59086 16.2886C4.97719 15.9069 5.2026 15.3917 5.22074 14.8489C5.23213 14.5768 5.18132 14.3057 5.07217 14.0562C4.96302 13.8067 4.79841 13.5854 4.59086 13.4091C4.20915 13.0228 3.69393 12.7974 3.15114 12.7793C2.87906 12.7679 2.60797 12.8187 2.35849 12.9278C2.10901 13.037 1.88771 13.2016 1.71142 13.4091L0.361683 12.0594C0.23858 11.9268 0.143301 11.771 0.0814798 11.601C0.0196583 11.4309 -0.00745151 11.2503 0.00175309 11.0696C-0.00745151 10.8889 0.0196583 10.7083 0.0814798 10.5382C0.143301 10.3682 0.23858 10.2123 0.361683 10.0798L10.0798 0.361683C10.2123 0.23858 10.3682 0.143301 10.5382 0.0814798C10.7083 0.0196583 10.8889 -0.00745151 11.0696 0.00175309C11.2503 -0.00745151 11.4309 0.0196583 11.601 0.0814798C11.771 0.143301 11.9268 0.23858 12.0594 0.361683L13.4091 1.71142C13.0228 2.09313 12.7974 2.60835 12.7793 3.15114C12.7679 3.42321 12.8187 3.69431 12.9278 3.94379C13.037 4.19327 13.2016 4.41457 13.4091 4.59086C13.7908 4.97719 14.3061 5.2026 14.8489 5.22074C15.1209 5.23213 15.392 5.18132 15.6415 5.07217C15.891 4.96302 16.1123 4.79841 16.2886 4.59086L17.6383 5.9406C17.7614 6.07315 17.8567 6.22904 17.9185 6.39905C17.9803 6.56906 18.0075 6.74974 17.9982 6.9304C17.9746 7.28781 17.8498 7.63112 17.6383 7.92021Z" fill="#132968"/>
</svg>
