<svg width="15" height="11" viewBox="0 0 15 11" fill="none" xmlns="http://www.w3.org/2000/svg">
<path d="M15 6.30852C15 6.45341 14.9242 6.67073 14.7727 6.67073C14.6747 6.78078 14.5416 6.85711 14.3939 6.88806C14.2943 6.90052 14.1934 6.87802 14.1098 6.82474C14.0262 6.77146 13.9657 6.691 13.9394 6.59829L12.5 4.49747H12.197V5.29433L13.7879 7.82981C13.8166 7.85834 13.8384 7.89266 13.8515 7.93027C13.8646 7.96787 13.8687 8.0078 13.8636 8.04713C13.8625 8.10317 13.8483 8.15826 13.8221 8.20839C13.7959 8.25852 13.7583 8.30242 13.7121 8.3369C13.6286 8.41324 13.523 8.46373 13.4091 8.48179H12.197V10.2928C12.2082 10.3786 12.1925 10.4657 12.1521 10.543C12.1117 10.6204 12.0482 10.6846 11.9697 10.7275C11.8264 10.8591 11.6379 10.9364 11.4394 10.9448H10.3788C10.2891 10.9555 10.198 10.9406 10.1171 10.9019C10.0362 10.8632 9.96914 10.8026 9.92424 10.7275C9.80301 10.6088 9.72355 10.4568 9.69697 10.2928V8.62667H8.48485C8.42625 8.6256 8.36864 8.61203 8.31621 8.58697C8.26379 8.5619 8.21787 8.52597 8.18182 8.48179C8.12066 8.37053 8.09436 8.24477 8.10606 8.11957C8.10095 8.08024 8.1051 8.04031 8.1182 8.00271C8.13131 7.96511 8.15305 7.93078 8.18182 7.90225L9.77273 5.36678V4.56991H9.4697L8.0303 6.67073C7.98768 6.75285 7.92327 6.82282 7.84351 6.87367C7.76374 6.92452 7.67141 6.95446 7.57576 6.9605C7.42424 6.9605 7.19697 6.88806 7.19697 6.74318C7.08189 6.6494 7.00207 6.52219 6.9697 6.38096C6.95799 6.25577 6.9843 6.13001 7.04545 6.01875L8.63636 3.55572C8.75008 3.3619 8.91472 3.1998 9.11402 3.08546C9.31331 2.97111 9.54036 2.90848 9.77273 2.90375H12.197C12.4272 2.91706 12.6508 2.98327 12.8486 3.09677C13.0464 3.21027 13.2127 3.3677 13.3333 3.55572L15 5.94631V6.30852ZM12.4242 1.38246C12.4139 1.75043 12.2813 2.10569 12.0455 2.39665C11.9076 2.52815 11.741 2.62882 11.5576 2.69145C11.3742 2.75407 11.1786 2.77709 10.9848 2.75886C10.5977 2.76143 10.2221 2.63314 9.92424 2.39665C9.78673 2.26482 9.68145 2.10551 9.61595 1.93016C9.55046 1.75481 9.52639 1.56777 9.54545 1.38246C9.55576 1.01449 9.68844 0.659235 9.92424 0.368272C10.0621 0.236777 10.2287 0.136102 10.4121 0.0734762C10.5955 0.0108506 10.7911 -0.0121717 10.9848 0.00606191C11.372 0.00349743 11.7476 0.131781 12.0455 0.368272C12.2702 0.664927 12.4016 1.0168 12.4242 1.38246ZM6.36364 4.13526V6.67073C6.36364 6.81562 6.28788 7.03294 6.13636 7.03294C6.0383 7.14299 5.90526 7.21932 5.75758 7.25027C5.60606 7.25027 5.37879 7.17783 5.37879 7.03294C5.26371 6.93917 5.18388 6.81196 5.15151 6.67073V4.49747H4.77273V10.148C4.78391 10.2338 4.7683 10.3208 4.72786 10.3982C4.68742 10.4755 4.62395 10.5397 4.54545 10.5826C4.38387 10.6851 4.2042 10.7587 4.01515 10.7999C3.92655 10.8021 3.83875 10.7835 3.75948 10.7456C3.68021 10.7077 3.61191 10.6517 3.56061 10.5826C3.49433 10.5283 3.44008 10.4619 3.40105 10.3872C3.36202 10.3126 3.339 10.2312 3.33333 10.148V7.32271H2.95455V10.148C2.96573 10.2338 2.95012 10.3208 2.90968 10.3982C2.86924 10.4755 2.80577 10.5397 2.72727 10.5826C2.67049 10.646 2.60102 10.6979 2.52296 10.7352C2.4449 10.7725 2.35982 10.7945 2.27273 10.7999C2.18413 10.8021 2.09633 10.7835 2.01706 10.7456C1.93779 10.7077 1.86949 10.6517 1.81818 10.5826C1.69695 10.4639 1.61749 10.3119 1.59091 10.148V4.56991H1.21212V6.74318C1.21212 6.88806 1.13636 7.10539 0.984848 7.10539C0.886785 7.21543 0.75375 7.29176 0.606061 7.32271C0.454545 7.32271 0.227273 7.25027 0.227273 7.10539C0.160999 7.05108 0.106752 6.98466 0.0677215 6.91001C0.028691 6.83537 0.00566567 6.75401 0 6.67073V4.13526C0.0117866 3.81114 0.146413 3.50218 0.378788 3.26596C0.486004 3.13709 0.625605 3.03628 0.784572 2.97294C0.943538 2.90961 1.11669 2.8858 1.28788 2.90375H5.37879C5.71774 2.91502 6.04084 3.04375 6.28788 3.26596C6.28788 3.55572 6.36364 3.84549 6.36364 4.13526ZM4.54545 1.38246C4.53515 1.75043 4.40247 2.10569 4.16667 2.39665C4.0288 2.52815 3.8622 2.62882 3.67883 2.69145C3.49545 2.75407 3.29985 2.77709 3.10606 2.75886C2.74432 2.74843 2.39703 2.6207 2.12121 2.39665C1.9837 2.26482 1.87842 2.10551 1.81292 1.93016C1.74743 1.75481 1.72336 1.56777 1.74242 1.38246C1.75273 1.01449 1.88541 0.659235 2.12121 0.368272C2.25907 0.236777 2.42568 0.136102 2.60905 0.0734762C2.79243 0.0108506 2.98803 -0.0121717 3.18182 0.00606191C3.56895 0.00349743 3.94458 0.131781 4.24242 0.368272C4.40309 0.68737 4.50557 1.03037 4.54545 1.38246Z" fill="#132968"/>
</svg>
