<svg width="14" height="10" viewBox="0 0 14 10" fill="none" xmlns="http://www.w3.org/2000/svg">
<path d="M7.00098 9.95312C6.76155 9.83487 6.54769 9.67287 6.37107 9.47597C6.02112 9.13514 5.88114 8.93064 5.88114 8.79431C5.89211 8.69557 5.94204 8.60483 6.02039 8.54124C6.09873 8.47766 6.19937 8.44619 6.30108 8.45348C6.58104 8.45348 6.861 8.24899 7.07097 8.24899C7.33856 8.26917 7.5998 8.33856 7.84086 8.45348C8.19081 8.58982 8.26081 8.72615 8.26081 8.79431C8.13016 9.04222 7.96532 9.27156 7.77087 9.47597C7.28094 9.74863 7.07097 9.95312 7.00098 9.95312ZM8.89072 8.04449C8.7877 7.98992 8.69339 7.92103 8.61076 7.84C8.40036 7.68637 8.16328 7.57092 7.91085 7.49917C7.62743 7.36462 7.31628 7.2947 7.00098 7.2947C6.68569 7.2947 6.37453 7.36462 6.09111 7.49917L5.39121 7.84C5.04125 7.97633 5.04125 8.04449 5.04125 8.04449C4.78847 7.91588 4.57213 7.72858 4.41134 7.49917C4.06139 7.15834 3.92141 6.95384 3.92141 6.81751C3.91669 6.7805 3.92052 6.74293 3.93263 6.70755C3.94474 6.67216 3.96482 6.63987 3.9914 6.61302C4.38964 6.22602 4.8664 5.92421 5.39121 5.72687C5.92564 5.51615 6.4946 5.4007 7.07097 5.38604C7.64651 5.40744 8.2143 5.52265 8.75074 5.72687C9.2886 5.89851 9.77112 6.20397 10.1505 6.61302C10.1771 6.63987 10.1972 6.67216 10.2093 6.70755C10.2214 6.74293 10.2253 6.7805 10.2205 6.81751C10.0899 7.06542 9.92505 7.29476 9.7306 7.49917C9.24067 7.83999 9.0307 8.04449 8.89072 8.04449ZM10.8504 6.06769C10.8124 6.07229 10.7739 6.06856 10.7375 6.05677C10.7012 6.04497 10.668 6.02541 10.6405 5.99953C10.1028 5.57083 9.5156 5.20479 8.89072 4.90888C8.29691 4.65267 7.64961 4.53592 7.00098 4.56805C6.5953 4.56961 6.19288 4.63877 5.81115 4.77255C5.46854 4.90658 5.11795 5.02039 4.76129 5.11338C4.48855 5.26333 4.20823 5.39983 3.92141 5.52237C3.64145 5.6587 3.50147 5.79503 3.36149 5.8632L3.15152 6.06769C2.89874 5.93908 2.68239 5.75178 2.52161 5.52237C2.24165 5.18154 1.96169 4.97704 1.96169 4.84071C1.95696 4.8037 1.9608 4.76613 1.97291 4.73075C1.98502 4.69536 2.0051 4.66307 2.03168 4.63622C2.70382 4.00648 3.48598 3.49863 4.34135 3.13658C5.21124 2.80798 6.13805 2.64597 7.07097 2.65942C8.00076 2.6795 8.92167 2.84048 9.80059 3.13658C10.6831 3.44825 11.4754 3.96269 12.1103 4.63622C12.1368 4.66307 12.1569 4.69536 12.169 4.73075C12.1811 4.76613 12.185 4.8037 12.1803 4.84071C12.0496 5.08862 11.8848 5.31796 11.6903 5.52237C11.4532 5.76003 11.1669 5.94591 10.8504 6.06769ZM12.8102 4.15906C12.7402 4.15906 12.6702 4.15906 12.6702 4.09089C11.88 3.39158 10.9827 2.81662 10.0106 2.38676C9.04942 2.02945 8.02976 1.84469 7.00098 1.84143C5.97604 1.81662 4.95535 1.97845 3.9914 2.31859C3.01427 2.73961 2.11555 3.31546 1.33178 4.02273C1.26179 4.09089 1.26179 4.15906 1.19179 4.15906C0.939013 4.03044 0.722665 3.84315 0.561883 3.61373C0.281922 3.27291 0.00196147 3.06841 0.00196147 2.93208C-0.00276201 2.89507 0.0010715 2.8575 0.0131814 2.82211C0.0252914 2.78673 0.0453713 2.75443 0.0719516 2.72758C0.971325 1.84825 2.04218 1.15296 3.22151 0.682618C4.42281 0.214735 5.70732 -0.0169355 7.00098 0.000963384C8.29848 0.0128755 9.58156 0.267428 10.7805 0.750784C11.9779 1.18732 13.0557 1.88714 13.93 2.79575C14 2.79575 14 2.86391 14 2.93208C13.8694 3.17999 13.7045 3.40933 13.5101 3.61373C13.298 3.81996 13.0633 4.00283 12.8102 4.15906Z" fill="#132968"/>
</svg>
