<svg width="128" height="30" fill="none" xmlns="http://www.w3.org/2000/svg"><path d="M2.825 22.022v-5.457H0v-6.038h2.825v-4.76L10.49 4.45v6.077h4.567v6.037H10.49v4.915c0 1.51.464 2.361 1.896 2.361a8.132 8.132 0 0 0 2.67-.62v5.845c-1.51.621-3.127.937-4.76.929-2.36 0-4.373-.735-5.612-1.974-1.084-1.084-1.858-2.709-1.858-5.999zm23.57-11.92c6.386 0 10.992 4.335 10.992 9.947 0 5.611-4.606 9.946-10.992 9.946-6.386 0-10.991-4.335-10.991-9.946 0-5.612 4.605-9.947 10.991-9.947zm0 13.507c1.974 0 3.406-1.548 3.406-3.56 0-2.013-1.432-3.561-3.406-3.561-1.974 0-3.406 1.548-3.406 3.56 0 2.013 1.432 3.561 3.406 3.561zm12.306-1.239V10.527h7.663v10.836c0 1.007.194 1.471.542 1.82a1.953 1.953 0 0 0 1.432.541 3.891 3.891 0 0 0 2.554-1.084V10.527h7.664v19.041h-7.509V28.02l-.077-.038a8.573 8.573 0 0 1-5.418 2.012 7.33 7.33 0 0 1-4.877-1.742c-1.355-1.238-1.974-3.018-1.974-5.882zm22.33-11.843h7.508v2.051l.078.039a6.664 6.664 0 0 1 5.07-2.438 6.93 6.93 0 0 1 1.393.155v7.043a10.16 10.16 0 0 0-2.09-.232c-1.625 0-3.018.387-4.296 1.587v10.837h-7.663V10.527z" fill="#1296CF"/><path d="M80.072.192a3.987 3.987 0 1 1-.077 7.973 3.987 3.987 0 0 1 .077-7.973zM76.24 10.526h7.663v19.042H76.24V10.526z" fill="#EBBD72"/><path d="M86.457 0h7.663v18.345l.077.039 5.341-7.857h8.437l-6.347 8.515 6.618 10.527H99.5l-5.303-9.366-.077.039v9.327h-7.663V0z" fill="#F1797A"/><path d="M109.483 28.796a5.244 5.244 0 0 1-2.438-4.567 5.547 5.547 0 0 1 2.245-4.567c1.471-1.084 3.483-1.432 5.341-1.432.976.001 1.949.105 2.903.31v-.271a1.803 1.803 0 0 0-.542-1.394c-.581-.541-1.548-.696-2.555-.696-2.012 0-3.947.619-5.534 1.277v-5.96a17.83 17.83 0 0 1 7.044-1.394c2.748 0 5.263.62 6.889 1.858 1.703 1.277 2.361 3.058 2.361 5.457v5.496c0 .774.271 1.238.967 1.238a2.03 2.03 0 0 0 .89-.232v5.264c-.812.464-2.128.735-3.599.735-1.587 0-3.174-.31-4.451-1.277h-.077a9.385 9.385 0 0 1-4.954 1.355 8.027 8.027 0 0 1-4.49-1.2zm8.051-4.142v-2.36a6.166 6.166 0 0 0-1.123-.117c-1.006 0-1.935.388-1.935 1.394 0 .929.813 1.354 1.703 1.354a3.84 3.84 0 0 0 1.355-.27z" fill="#86BEB1"/></svg>