<svg width="128" height="30" viewBox="0 0 128 30" fill="none" xmlns="http://www.w3.org/2000/svg">
<path d="M2.8254 22.022V16.5652H0V10.5275H2.8254V5.76695L10.4886 4.45123V10.5275H15.0556V16.5652H10.4886V21.4804C10.4886 22.9899 10.953 23.8412 12.385 23.8412C13.3038 23.7874 14.2068 23.578 15.0556 23.2219V29.0662C13.5457 29.6871 11.9277 30.0028 10.2952 29.995C7.9342 29.995 5.92163 29.2596 4.68316 28.0211C3.59947 26.9374 2.8254 25.312 2.8254 22.022Z" fill="#1296CF"/>
<path d="M26.3952 10.1018C32.7813 10.1018 37.3869 14.4365 37.3869 20.0486C37.3869 25.6604 32.7813 29.9952 26.3952 29.9952C20.0091 29.9952 15.4036 25.6604 15.4036 20.0486C15.4036 14.4365 20.0091 10.1018 26.3952 10.1018ZM26.3952 23.6092C28.369 23.6092 29.8011 22.0611 29.8011 20.0486C29.8011 18.036 28.369 16.4879 26.3952 16.4879C24.4214 16.4879 22.9894 18.036 22.9894 20.0486C22.9894 22.0611 24.4214 23.6092 26.3952 23.6092Z" fill="#1296CF"/>
<path d="M38.7012 22.3697V10.5266H46.3644V21.3633C46.3644 22.3697 46.5578 22.8342 46.9062 23.1824C47.0961 23.3645 47.3209 23.5063 47.567 23.5994C47.8131 23.6925 48.0754 23.7349 48.3383 23.7241C49.2939 23.689 50.2032 23.3032 50.8925 22.6404V10.5266H58.5559V29.5683H51.0473V28.0202L50.9701 27.9816C49.4514 29.2594 47.5363 29.9707 45.5517 29.9941C43.7683 30.0261 42.0345 29.4068 40.675 28.2523C39.3204 27.0138 38.7012 25.2336 38.7012 22.3697Z" fill="#1296CF"/>
<path d="M61.031 10.527H68.5392V12.5782L68.6168 12.617C69.2331 11.8655 70.0062 11.2579 70.8821 10.8368C71.7579 10.4156 72.7152 10.191 73.687 10.1788C74.1554 10.1832 74.6223 10.235 75.0803 10.3336V17.3774C74.3935 17.2279 73.693 17.1502 72.9902 17.1453C71.3648 17.1453 69.9715 17.5322 68.6944 18.7319V29.5687H61.031V10.527Z" fill="#1296CF"/>
<path d="M80.072 0.192359C80.8588 0.199945 81.6258 0.440196 82.2763 0.882852C82.9269 1.32551 83.4318 1.95077 83.7277 2.67989C84.0235 3.409 84.097 4.20936 83.9389 4.98016C83.7807 5.75095 83.398 6.45771 82.8389 7.01141C82.2799 7.56511 81.5695 7.94099 80.7972 8.09171C80.0249 8.24243 79.2253 8.16124 78.499 7.85837C77.7728 7.5555 77.1524 7.0445 76.7161 6.38973C76.2797 5.73496 76.0469 4.9657 76.0469 4.17885C76.0472 3.65218 76.1519 3.1308 76.3548 2.64479C76.5577 2.15877 76.8548 1.71774 77.229 1.34713C77.6032 0.976517 78.0471 0.683668 78.535 0.485471C79.023 0.287275 79.5453 0.187656 80.072 0.192359ZM76.2403 10.5261H83.9033V29.5679H76.2403V10.5261Z" fill="#EBBD72"/>
<path d="M86.4565 0H94.1199V18.3452L94.1971 18.3838L99.5383 10.5272H107.975L101.628 19.0417L108.246 29.5689H99.4997L94.1971 20.203L94.1199 20.2416V29.5689H86.4565V0Z" fill="#F1797A"/>
<path d="M109.483 28.7958C108.716 28.3111 108.088 27.6354 107.66 26.8348C107.233 26.0342 107.021 25.1362 107.045 24.229C107.028 23.3438 107.222 22.4674 107.613 21.6728C108.003 20.8783 108.578 20.1888 109.29 19.6619C110.761 18.5782 112.773 18.2299 114.631 18.2299C115.607 18.231 116.58 18.3348 117.534 18.5396V18.2686C117.548 18.0111 117.507 17.7537 117.413 17.5134C117.32 17.2731 117.176 17.0556 116.992 16.8754C116.411 16.3336 115.444 16.1788 114.437 16.1788C112.425 16.1788 110.49 16.798 108.903 17.4561V11.4956C111.132 10.5584 113.528 10.0843 115.947 10.1023C118.695 10.1023 121.21 10.7215 122.836 11.96C124.539 13.2373 125.197 15.0177 125.197 17.4172V22.9129C125.197 23.687 125.468 24.1514 126.164 24.1514C126.475 24.1431 126.779 24.0637 127.054 23.9194V29.1826C126.242 29.6474 124.926 29.9181 123.455 29.9181C121.868 29.9181 120.281 29.6084 119.004 28.641H118.927C117.433 29.5445 115.718 30.0136 113.973 29.9956C112.391 30.0473 110.829 29.6298 109.483 28.7958ZM117.534 24.6545V22.2937C117.164 22.2207 116.788 22.1818 116.411 22.1775C115.405 22.1775 114.476 22.5647 114.476 23.5708C114.476 24.4996 115.289 24.9255 116.179 24.9255C116.643 24.9178 117.102 24.826 117.534 24.6545Z" fill="#86BEB1"/>
</svg>
